<?xml version="1.0" standalone="no"?>
<!DOCTYPE svg PUBLIC "-//W3C//DTD SVG 1.1//EN" "http://www.w3.org/Graphics/SVG/1.1/DTD/svg11.dtd" >
<svg xmlns="http://www.w3.org/2000/svg">
<metadata></metadata>
<defs>
<font id="senticosansdtitalic" horiz-adv-x="1060" >
<font-face units-per-em="2048" ascent="1638" descent="-410" />
<missing-glyph horiz-adv-x="491" />
<glyph unicode="&#xfb03;" horiz-adv-x="1851" d="M139 -420l226 1278h-156l24 139h156l33 181q25 140 109.5 208t248.5 68q96 0 181 -18l-33 -138q-91 21 -178 21q-76 0 -111.5 -32.5t-50.5 -112.5l-33 -177h492l32 181q25 140 110 208t249 68q95 0 180 -18l-33 -138q-91 21 -178 21q-76 0 -111.5 -32.5t-50.5 -112.5 l-33 -177h281l-51 -139h-254l-217 -1249l-174 -29l225 1278h-492l-217 -1249zM1530 0l174 997h166l-174 -997h-166zM1741 1214q0 46 18 113q9 36 30.5 50t70.5 14q44 0 60.5 -11t16.5 -39q0 -84 -24 -133q-10 -24 -31 -33.5t-63 -9.5q-44 0 -61 10.5t-17 38.5z" />
<glyph unicode="&#xfb04;" horiz-adv-x="1931" d="M139 -420l226 1278h-156l24 139h156l33 181q25 140 109.5 208t248.5 68q96 0 181 -18l-33 -138q-91 21 -178 21q-76 0 -111.5 -32.5t-50.5 -112.5l-33 -177h492l32 181q25 140 110 208t249 68q95 0 180 -18l-33 -138q-91 21 -178 21q-76 0 -111.5 -32.5t-50.5 -112.5 l-33 -177h281l-51 -139h-254l-217 -1249l-174 -29l225 1278h-492l-217 -1249zM1544 106q0 46 17 136l208 1183l175 29l-222 -1243q-6 -42 -6 -51q0 -29 15 -39t45 -10q50 0 108 20l19 -125q-96 -29 -203 -29q-87 0 -121.5 31.5t-34.5 97.5z" />
<glyph horiz-adv-x="0" />
<glyph horiz-adv-x="682" />
<glyph unicode=" "  horiz-adv-x="491" />
<glyph unicode="&#x09;" horiz-adv-x="491" />
<glyph unicode="&#xa0;" horiz-adv-x="491" />
<glyph unicode="!" horiz-adv-x="512" d="M174 35q0 42 19 112q9 36 30 50t70 14q44 0 61 -10.5t17 -38.5q0 -82 -25 -133q-10 -24 -31 -33.5t-63 -9.5q-44 0 -61 10.5t-17 38.5zM254 342l47 356l121 723h168l-135 -723l-78 -356h-123z" />
<glyph unicode="&#x22;" horiz-adv-x="759" d="M342 977q0 17 2 31l47 344q6 48 16 58.5t42 10.5h55q24 0 31.5 -4t7.5 -20q0 -15 -6 -45l-76 -344q-9 -37 -16.5 -46.5t-28.5 -9.5h-47q-16 0 -21.5 4.5t-5.5 20.5zM649 977q0 17 2 31l47 344q6 48 16 58.5t42 10.5h55q24 0 31.5 -4t7.5 -20q0 -15 -6 -45l-76 -344 q-9 -37 -16.5 -46.5t-28.5 -9.5h-47q-16 0 -21.5 4.5t-5.5 20.5z" />
<glyph unicode="#" horiz-adv-x="1298" d="M166 457l41 114h209l114 369h-217l41 115h213l109 346h125l-109 -346h371l108 346h125l-108 -346h207l-41 -115h-203l-115 -369h211l-41 -114h-207l-112 -363h-125l112 363h-370l-113 -363h-125l113 363h-213zM541 571h370l115 369h-371z" />
<glyph unicode="$" horiz-adv-x="1163" d="M168 57l45 152q151 -67 322 -80l90 512q-169 56 -234 111.5t-65 165.5q0 192 86 315q98 143 346 160l37 198h139l-37 -198q183 -14 295 -54l-41 -153q-140 51 -279 61l-88 -493q165 -57 230 -114t65 -163q0 -196 -90 -330q-50 -73 -131.5 -111.5t-208.5 -47.5l-35 -201 h-139l35 199q-212 14 -342 71zM485 956q0 -60 35.5 -92t132.5 -67l80 452q-140 -9 -192 -88q-56 -88 -56 -205zM674 129q76 8 122.5 32t73.5 72q48 85 48 197q0 60 -35 96t-125 70z" />
<glyph unicode="%" horiz-adv-x="1781" d="M252 848q0 172 61 342q41 115 119.5 174t216.5 59q140 0 197 -59t57 -176q0 -174 -61 -344q-40 -115 -118.5 -173.5t-217.5 -58.5q-140 0 -197 59.5t-57 176.5zM387 856q0 -74 31 -101.5t108 -27.5q83 0 126 33.5t69 122.5q47 173 47 297q0 74 -31 101.5t-108 27.5 q-84 0 -126.5 -33t-68.5 -123q-47 -173 -47 -297zM532 18l857 1428l118 -41l-856 -1428zM1122 213q0 169 62 342q41 115 119.5 174t216.5 59q140 0 197 -59t57 -176q0 -171 -62 -344q-40 -115 -118.5 -173.5t-217.5 -58.5q-140 0 -197 59.5t-57 176.5zM1257 221 q0 -73 31.5 -101t108.5 -28q83 0 125.5 33.5t68.5 122.5q47 173 47 297q0 74 -31 101.5t-108 27.5q-84 0 -126 -33t-68 -123q-48 -177 -48 -297z" />
<glyph unicode="&#x26;" horiz-adv-x="1296" d="M147 254q0 95 30.5 174.5t88 141.5t116 105t138.5 89q-121 175 -121 291q0 119 56.5 203t147 122.5t206.5 38.5q140 0 219.5 -57t79.5 -168q0 -64 -18 -118.5t-47 -96.5t-81.5 -86t-104.5 -78t-132 -80l283 -358q102 108 182 248l115 -58q-127 -202 -220 -291l150 -186 l-129 -96l-139 178q-87 -67 -148 -104t-145.5 -62.5t-181.5 -25.5q-177 0 -261 73t-84 201zM309 291q0 -80 51 -126t146 -46q210 0 385 149l-303 394q-52 -32 -81.5 -51.5t-73 -57t-66.5 -71.5t-40.5 -84t-17.5 -107zM549 1071q0 -51 25 -106t81 -131q49 24 83.5 43.5 t78.5 52t71 64.5t46.5 77.5t19.5 95.5q0 123 -168 123q-110 0 -173.5 -59t-63.5 -160z" />
<glyph unicode="'" horiz-adv-x="452" d="M342 977q0 17 2 31l47 344q6 48 16 58.5t42 10.5h55q24 0 31.5 -4t7.5 -20q0 -15 -6 -45l-76 -344q-9 -37 -16.5 -46.5t-28.5 -9.5h-47q-16 0 -21.5 4.5t-5.5 20.5z" />
<glyph unicode="(" horiz-adv-x="604" d="M219 309q0 365 137 691t373 593l111 -69q-223 -267 -343 -578.5t-120 -656.5q0 -142 33.5 -277.5t109.5 -292.5l-137 -81q-164 317 -164 671z" />
<glyph unicode=")" horiz-adv-x="604" d="M-16 -281q227 275 342.5 579t115.5 654q0 277 -141 572l135 69q162 -319 162 -667q0 -366 -136 -693.5t-372 -594.5z" />
<glyph unicode="*" horiz-adv-x="1024" d="M313.5 1109.5q-3.5 3.5 0 12t7.5 18t15 29.5q24 49 31 53.5t28 -3.5q35 -12 47 -17l213 -90l29 246q1 6 8 51q4 26 14 30.5t56 4.5q48 0 55.5 -4.5t3.5 -30.5l-12 -51l-57 -246l245 90l52 17q26 8 31.5 1.5t11.5 -51.5q8 -44 4.5 -54t-29.5 -19q-5 -1 -21.5 -6t-29.5 -7 l-250 -63l123 -191q7 -9 14 -24t8 -17q13 -21 7.5 -28.5t-48.5 -34.5q-41 -29 -51.5 -30.5t-23.5 18.5q-2 5 -9 18.5t-10 24.5l-100 207l-168 -207q-8 -11 -19.5 -24.5t-15.5 -18.5q-20 -20 -30 -18.5t-42 30.5q-34 27 -37 34.5t17 28.5l39 41l188 191l-225 63 q-13 2 -27.5 7t-19.5 6q-11 4 -15 7t-7.5 6.5z" />
<glyph unicode="+" horiz-adv-x="1024" d="M211 512l22 131h322l57 326h138l-58 -326h322l-23 -131h-321l-58 -326h-137l57 326h-321z" />
<glyph unicode="," horiz-adv-x="477" d="M100 -219q0 6 4 14l74 146q12 28 12 32q0 11 -16 23t-16 35q0 51 18 116q9 35 30.5 49.5t69.5 14.5q44 0 61 -11.5t17 -39.5q0 -22 -6 -62l-10 -53q-10 -48 -37 -92l-113 -195q-9 -12 -14 -12q-8 0 -37 12q-27 11 -32 14t-5 9z" />
<glyph unicode="-" horiz-adv-x="759" d="M197 479l24 146h535l-25 -146h-534z" />
<glyph unicode="." horiz-adv-x="477" d="M158 35q0 45 18 112q9 36 30 50t70 14q44 0 61 -10.5t17 -38.5q0 -84 -24 -133q-10 -24 -31 -33.5t-63 -9.5q-44 0 -61 10.5t-17 38.5z" />
<glyph unicode="/" horiz-adv-x="915" d="M18 -174l922 1610l129 -60l-924 -1607z" />
<glyph unicode="0" horiz-adv-x="1163" d="M201 334q0 210 86 590q21 92 47.5 161.5t69.5 135t99.5 107t139.5 66.5t188 25q109 0 184 -25t116.5 -73.5t59 -109.5t17.5 -144q0 -89 -14 -199.5t-29 -185t-43 -205.5q-20 -90 -47.5 -161.5t-71.5 -135.5t-102 -106.5t-140 -67t-183 -24.5q-109 0 -184 25t-116.5 73.5 t-59 109.5t-17.5 144zM367 340q0 -113 52.5 -164t182.5 -51q85 0 142.5 20t97 66.5t64 109.5t46.5 164q29 125 43 193.5t29.5 180.5t15.5 200q0 115 -52 166t-183 51q-85 0 -143 -20t-97.5 -67.5t-63 -110.5t-44.5 -163q-4 -22 -28 -133t-32.5 -158.5t-19 -132t-10.5 -151.5 z" />
<glyph unicode="1" horiz-adv-x="1163" d="M319 0l25 141h229l191 1082l-266 -129l-13 143l336 164h142l-222 -1260h220l-25 -141h-617z" />
<glyph unicode="2" horiz-adv-x="1163" d="M182 0l23 133q371 353 508 500q143 157 214.5 277t71.5 220q0 77 -50.5 112.5t-166.5 35.5q-174 0 -358 -82l8 147q182 80 389 80q188 0 271.5 -64t83.5 -190q0 -79 -19 -148t-65 -144t-104.5 -146.5t-156.5 -175.5q-69 -74 -145 -150t-118.5 -116t-155.5 -146h592 l-25 -143h-797z" />
<glyph unicode="3" horiz-adv-x="1163" d="M178 37l43 149q170 -65 332 -65q128 0 199.5 30t105.5 111q43 108 43 219q0 83 -53 118.5t-152 35.5h-260l27 143h155q142 0 215.5 30.5t104.5 113.5q39 98 39 213q0 76 -50.5 109.5t-160.5 33.5q-151 0 -336 -64l10 148q188 59 351 59q358 0 358 -250q0 -169 -64 -297 q-50 -97 -167 -145q82 -23 118.5 -73t36.5 -138q0 -190 -80 -330q-61 -109 -174.5 -160t-288.5 -51q-87 0 -184 16.5t-168 43.5z" />
<glyph unicode="4" horiz-adv-x="1163" d="M154 389l24 141l783 871h178l-154 -873h182l-24 -139h-182l-68 -389h-168l68 389h-639zM358 528h459l144 639z" />
<glyph unicode="5" horiz-adv-x="1163" d="M184 35l43 149q157 -61 324 -61q129 0 198 34t103 122q45 123 45 241q0 84 -53 117t-187 33q-97 0 -237 -17h-86l158 748h694l-25 -144h-545l-92 -448q152 8 203 8q179 0 260.5 -65.5t81.5 -200.5q0 -186 -76 -344q-58 -117 -168 -173.5t-295 -56.5q-202 0 -346 58z" />
<glyph unicode="6" horiz-adv-x="1163" d="M219 311q0 147 53.5 427.5t122.5 408.5q73 137 195 205.5t315 68.5q59 0 145 -12.5t144 -30.5l-41 -147q-131 41 -262 41q-142 0 -224 -43t-128 -131q-24 -45 -42 -113.5t-46 -224.5q192 67 329 67q169 0 245.5 -65t76.5 -205q0 -196 -80 -352q-59 -115 -165 -171.5 t-271 -56.5q-138 0 -220 40t-114.5 111t-32.5 183zM383 311q0 -98 50.5 -144t178.5 -46q122 0 186.5 37t98.5 125q45 112 45 241q0 85 -45 120.5t-152 35.5q-153 0 -319 -59q-3 -21 -10.5 -63t-10 -58t-7.5 -46.5t-7 -44.5t-4 -34.5t-3 -35t-1 -28.5z" />
<glyph unicode="7" horiz-adv-x="1163" d="M272 0l770 1257h-622l24 144h807l-18 -111l-789 -1290h-172z" />
<glyph unicode="8" horiz-adv-x="1163" d="M176 276q0 83 24.5 167.5t69.5 140.5q73 91 226 149q-84 42 -121 102t-37 148q0 75 23.5 153t66.5 130q127 155 403 155q189 0 277 -70.5t88 -215.5q0 -69 -29 -148.5t-80 -136.5q-67 -73 -163 -117q98 -42 143 -106.5t45 -171.5q0 -71 -20.5 -149.5t-57.5 -131.5 q-133 -197 -456 -197q-215 0 -308.5 69.5t-93.5 229.5zM352 285q0 -94 57 -129t193 -35q224 0 299 135q41 74 41 195q0 89 -56.5 137t-187.5 80q-205 -44 -280 -140q-32 -41 -49 -107t-17 -136zM504 977q0 -78 50 -125.5t165 -73.5q199 46 266 154q43 68 43 190 q0 79 -51.5 117.5t-169.5 38.5q-170 0 -244 -96q-28 -35 -43.5 -92t-15.5 -113z" />
<glyph unicode="9" horiz-adv-x="1163" d="M211 20l41 148q131 -41 262 -41q142 0 224 43t128 131q24 45 42 113.5t46 224.5q-195 -68 -329 -68q-169 0 -245.5 65.5t-76.5 205.5q0 196 80 352q59 115 164.5 171t271.5 56q203 0 285 -82.5t82 -251.5q0 -147 -53.5 -427t-122.5 -408q-73 -138 -195 -206.5t-315 -68.5 q-59 0 -145 12.5t-144 30.5zM463 874q0 -85 44.5 -120t151.5 -35q77 0 165.5 18t154.5 41q4 22 11 63t9.5 58t7.5 46t7 44t4 35t3 34.5t1 28.5q0 99 -50.5 145t-178.5 46q-122 0 -186.5 -37t-98.5 -125q-45 -112 -45 -242z" />
<glyph unicode=":" horiz-adv-x="477" d="M158 35q0 45 18 112q9 36 30 50t70 14q44 0 61 -10.5t17 -38.5q0 -84 -24 -133q-10 -24 -31 -33.5t-63 -9.5q-44 0 -61 10.5t-17 38.5zM270 684q0 43 19 113q9 36 30 49.5t70 13.5q44 0 61 -10.5t17 -38.5q0 -82 -25 -133q-10 -24 -31 -33.5t-63 -9.5q-44 0 -61 10.5 t-17 38.5z" />
<glyph unicode=";" horiz-adv-x="477" d="M100 -219q0 6 4 14l74 146q12 28 12 32q0 11 -16 23t-16 35q0 51 18 116q9 35 30.5 49.5t69.5 14.5q44 0 61 -11.5t17 -39.5q0 -22 -6 -62l-10 -53q-10 -48 -37 -92l-113 -195q-9 -12 -14 -12q-8 0 -37 12q-27 11 -32 14t-5 9zM270 684q0 43 19 113q9 36 30 49.5t70 13.5 q44 0 61 -10.5t17 -38.5q0 -82 -25 -133q-10 -24 -31 -33.5t-63 -9.5q-44 0 -61 10.5t-17 38.5z" />
<glyph unicode="&#x3c;" horiz-adv-x="1024" d="M209 506l27 147l800 377l37 -123l-711 -334l594 -331l-77 -111z" />
<glyph unicode="=" horiz-adv-x="1024" d="M180 340l23 131h780l-22 -131h-781zM240 684l24 131h780l-24 -131h-780z" />
<glyph unicode="&#x3e;" horiz-adv-x="1024" d="M152 254l708 332l-592 334l78 110l670 -377l-27 -147l-801 -375z" />
<glyph unicode="?" horiz-adv-x="921" d="M291 35q0 45 18 112q9 36 30.5 50t70.5 14q44 0 60.5 -10.5t16.5 -38.5q0 -84 -24 -133q-10 -24 -31 -33.5t-63 -9.5q-44 0 -61 10.5t-17 38.5zM336 1245l10 150q188 49 326 49q179 0 259.5 -58t80.5 -186q0 -204 -94 -338q-30 -43 -70 -77.5t-99.5 -75.5t-91.5 -68 q-54 -45 -86.5 -94t-74.5 -144l-127 46q43 117 83.5 180t127.5 127q10 7 55.5 38.5t61 44t43 39t44.5 54.5q56 85 56 231q0 72 -45.5 102.5t-157.5 30.5q-133 0 -301 -51z" />
<glyph unicode="@" horiz-adv-x="1796" d="M236 475q0 391 178 643q219 305 704 305q348 0 513 -156t165 -460q0 -99 -10.5 -183t-40 -167.5t-75.5 -141t-122 -93.5t-176 -36q-65 0 -107.5 14t-64 35.5t-39.5 57.5q-48 -46 -119 -73t-147 -27q-118 0 -185 67t-67 186q0 234 84 385q102 183 307 183q71 0 133 -10 t209 -41l-67 -525q-7 -57 9.5 -82.5t82.5 -25.5q229 0 229 456q0 117 -27 205t-86.5 155t-162.5 101.5t-248 34.5q-403 0 -571 -264q-134 -214 -134 -549q0 -287 157.5 -416t481.5 -129q171 0 363 39l10 -131q-165 -47 -397 -47q-377 0 -578.5 169.5t-201.5 520.5zM815 479 q0 -72 25.5 -106.5t93.5 -34.5q51 0 108 25.5t93 56.5l61 424q-85 30 -170 30q-101 0 -154 -96q-57 -99 -57 -299z" />
<glyph unicode="A" horiz-adv-x="1253" d="M43 0l727 1401h201l239 -1401h-182l-63 391h-553l-195 -391h-174zM481 530h463l-108 709z" />
<glyph unicode="B" horiz-adv-x="1159" d="M164 0l246 1401h534q147 0 207.5 -64t60.5 -176q0 -150 -49 -254q-60 -129 -184 -172q164 -31 164 -227q0 -147 -66 -295q-94 -213 -346 -213h-567zM360 145h359q82 0 132.5 34.5t80.5 121.5q33 109 33 180q0 160 -205 160h-311zM473 784h281q102 0 159.5 31t90.5 123 q32 82 32 176q0 70 -39 104.5t-131 34.5h-311z" />
<glyph unicode="C" horiz-adv-x="1083" d="M211 334q0 119 40 352.5t87 370.5q66 187 193.5 276.5t363.5 89.5q191 0 340 -39l-41 -155q-65 18 -156.5 30.5t-158.5 12.5q-164 0 -246 -53.5t-127 -186.5q-33 -94 -76 -350t-43 -328q0 -126 65.5 -175.5t233.5 -49.5q68 0 160 11.5t162 29.5l-15 -154 q-160 -39 -338 -39q-103 0 -179.5 16t-127 44.5t-81.5 74t-43.5 99t-12.5 123.5z" />
<glyph unicode="D" horiz-adv-x="1243" d="M164 0l246 1401h444q122 0 206 -22.5t131 -68.5t67 -107t20 -146q0 -117 -36 -327.5t-77 -354.5q-36 -124 -98 -203.5t-176 -125.5t-283 -46h-444zM362 152h275q162 0 242 61.5t120 198.5q30 101 66.5 323t36.5 297q0 116 -60 166.5t-213 50.5h-274z" />
<glyph unicode="E" horiz-adv-x="1081" d="M164 0l246 1401h798l-26 -152h-627l-80 -454h561l-26 -152h-561l-87 -491h629l-26 -152h-801z" />
<glyph unicode="F" horiz-adv-x="1013" d="M164 0l246 1401h780l-27 -152h-608l-82 -465h553l-27 -151h-553l-110 -633h-172z" />
<glyph unicode="G" horiz-adv-x="1196" d="M211 340q0 88 30.5 284t67.5 337q31 117 73.5 198.5t110.5 143t169 91t239 29.5q199 0 375 -45l-39 -155q-189 49 -354 49q-104 0 -172 -17.5t-114.5 -61.5t-74 -106.5t-49.5 -164.5q-32 -140 -60 -311.5t-28 -256.5q0 -121 61.5 -173t221.5 -52q118 0 256 23l65 380 h-162l27 152h328l-117 -664q-218 -43 -428 -43q-122 0 -207 25t-132 74.5t-67 113t-20 150.5z" />
<glyph unicode="H" horiz-adv-x="1284" d="M164 0l246 1401h172l-107 -604h612l107 604h172l-246 -1401h-172l113 645h-612l-113 -645h-172z" />
<glyph unicode="I" horiz-adv-x="516" d="M172 0l246 1401h172l-246 -1401h-172z" />
<glyph unicode="J" horiz-adv-x="571" d="M45 111q81 23 123.5 39t71 41t39.5 53t20 80l190 1077h173l-189 -1073q-11 -62 -28 -108.5t-43.5 -80t-54.5 -56.5t-73 -42t-84.5 -32t-101.5 -31q-17 -5 -25 -7z" />
<glyph unicode="K" horiz-adv-x="1202" d="M164 0l246 1401h172l-121 -692l665 692h228l-692 -703l479 -698h-203l-479 705l-123 -705h-172z" />
<glyph unicode="L" horiz-adv-x="989" d="M164 0l246 1401h172l-220 -1249h586l-26 -152h-758z" />
<glyph unicode="M" horiz-adv-x="1548" d="M160 0l301 1401h186l201 -979l545 979h186l-190 -1401h-172l149 1075l-469 -856h-174l-166 856l-227 -1075h-170z" />
<glyph unicode="N" horiz-adv-x="1325" d="M164 0l246 1401h198l428 -1137l201 1137h168l-246 -1401h-198l-433 1124l-196 -1124h-168z" />
<glyph unicode="O" horiz-adv-x="1298" d="M217 356q0 101 31.5 300t73.5 343q32 105 76.5 180t112.5 131.5t164 84.5t224 28q121 0 204.5 -25t131.5 -75.5t69 -118.5t21 -162q0 -117 -30.5 -314.5t-77.5 -340.5q-65 -205 -197 -307.5t-375 -102.5q-121 0 -205 25t-132.5 75t-69.5 117.5t-21 161.5zM391 369 q0 -125 62 -182.5t219 -57.5q121 0 198 35.5t118 99t69 170.5q35 132 65.5 318.5t30.5 279.5q0 125 -62 182.5t-219 57.5q-91 0 -155 -18t-108 -57.5t-71.5 -93t-48.5 -132.5q-34 -123 -66 -318t-32 -284z" />
<glyph unicode="P" horiz-adv-x="1140" d="M164 0l246 1401h501q182 0 255 -61t73 -191q0 -80 -22.5 -209t-63.5 -217q-49 -106 -141 -156.5t-252 -50.5h-334l-90 -516h-172zM453 668h307q110 0 166.5 34t83.5 109q23 63 37 145t14 144q0 88 -44.5 118.5t-154.5 30.5h-307z" />
<glyph unicode="Q" horiz-adv-x="1298" d="M217 356q0 101 31.5 300t73.5 343q32 105 76.5 180t112.5 131.5t164 84.5t224 28q121 0 204.5 -25t131.5 -75.5t69 -118.5t21 -162q0 -117 -30.5 -314.5t-77.5 -340.5q-55 -173 -157 -272.5t-276 -126.5q0 -60 19.5 -86.5t87.5 -26.5q49 0 110 14l5 -141 q-95 -20 -162 -20q-117 0 -168 37.5t-51 138.5q0 32 6 73q-117 1 -198 26.5t-128 75.5t-67.5 117t-20.5 160zM391 369q0 -125 62 -182.5t219 -57.5q121 0 198 35.5t118 99t69 170.5q35 132 65.5 318.5t30.5 279.5q0 125 -62 182.5t-219 57.5q-91 0 -155 -18t-108 -57.5 t-71.5 -93t-48.5 -132.5q-34 -123 -66 -318t-32 -284z" />
<glyph unicode="R" horiz-adv-x="1224" d="M164 0l246 1401h522q168 0 236.5 -65.5t68.5 -192.5q0 -97 -24 -214t-70 -204q-71 -131 -221 -166l243 -559h-194l-240 545h-301l-94 -545h-172zM457 696h327q91 0 142 28.5t80 98.5q25 60 39 139.5t14 145.5q0 84 -39.5 112.5t-132.5 28.5h-332z" />
<glyph unicode="S" horiz-adv-x="1091" d="M125 31l47 162q173 -64 365 -64q121 0 192.5 30.5t106.5 100.5q36 65 36 180q0 25 -3.5 44.5t-13.5 36t-19.5 29t-31 24.5t-38 20t-50 18.5t-57.5 17.5t-69 19q-79 21 -128.5 40.5t-92 50.5t-61.5 74.5t-19 105.5q0 186 98 329q122 174 438 174q184 0 359 -41l-43 -161 q-165 51 -340 51q-123 0 -190.5 -29.5t-98.5 -93.5q-37 -73 -37 -172q0 -23 3 -41.5t14 -34.5t19 -27t31 -23t37 -19t49.5 -18.5t55.5 -17.5t68 -20q86 -25 138 -46.5t92.5 -53.5t57.5 -75t17 -105q0 -188 -88 -328q-121 -193 -463 -193q-201 0 -381 56z" />
<glyph unicode="T" horiz-adv-x="1073" d="M266 1249l27 152h979l-27 -152h-405l-219 -1249h-170l219 1249h-404z" />
<glyph unicode="U" horiz-adv-x="1290" d="M221 334q0 64 12 131l164 936h172l-168 -952q-10 -58 -10 -95q0 -112 67 -168.5t210 -56.5q168 0 258 79.5t118 240.5l168 952h172l-163 -936q-15 -83 -42 -152.5t-73.5 -133t-109.5 -107t-153.5 -69.5t-201.5 -26q-420 0 -420 357z" />
<glyph unicode="V" horiz-adv-x="1218" d="M268 1401h178l189 -1223l625 1223h180l-733 -1401h-201z" />
<glyph unicode="W" horiz-adv-x="1753" d="M297 1401h172l63 -1198l498 1198h184l72 -1202l481 1202h181l-584 -1401h-221l-68 1130l-471 -1130h-219z" />
<glyph unicode="X" horiz-adv-x="1177" d="M49 0l565 705l-307 696h191l241 -547l430 547h191l-547 -692l313 -709h-194l-250 557l-438 -557h-195z" />
<glyph unicode="Y" horiz-adv-x="1120" d="M260 1401h189l229 -727l485 727h189l-621 -912l-86 -489h-170l86 489z" />
<glyph unicode="Z" horiz-adv-x="1157" d="M111 0l22 139l916 1110h-705l27 152h905l-25 -144l-913 -1105h727l-27 -152h-927z" />
<glyph unicode="[" horiz-adv-x="593" d="M115 -334l344 1956h395l-25 -137h-235l-295 -1682h236l-25 -137h-395z" />
<glyph unicode="\" horiz-adv-x="915" d="M330 1386l149 50l357 -1618l-148 -49z" />
<glyph unicode="]" horiz-adv-x="593" d="M-33 -334l25 137h233l295 1682h-235l24 137h396l-345 -1956h-393z" />
<glyph unicode="^" horiz-adv-x="1024" d="M281 911l409 523h144l227 -523l-148 -61l-178 434l-329 -434z" />
<glyph unicode="_" horiz-adv-x="1024" d="M-55 -270l20 110h1039l-21 -110h-1038z" />
<glyph unicode="`" horiz-adv-x="681" d="M328 1282l34 158l353 -205l-49 -119z" />
<glyph unicode="a" d="M172 238q0 214 68 440q36 121 89.5 193t149.5 110.5t244 38.5q166 0 360 -31l-176 -989h-149l-2 78q-64 -41 -149.5 -71t-164.5 -30q-148 0 -209 63t-61 198zM346 274q0 -83 32.5 -120t117.5 -37q124 0 282 104l115 643q-107 21 -205 21q-86 0 -143.5 -28.5t-87.5 -76 t-51 -125.5q-60 -230 -60 -381z" />
<glyph unicode="b" horiz-adv-x="1054" d="M152 8l249 1417l174 29l-88 -498q161 64 316 64q139 0 198.5 -60t59.5 -196q0 -209 -70 -442q-26 -86 -61 -147t-89.5 -107t-133.5 -68.5t-185 -22.5q-179 0 -370 31zM342 133q122 -20 203 -20q66 0 115.5 18t82 54.5t52.5 79.5t36 104q56 218 56 360q0 79 -31.5 114.5 t-107.5 35.5q-123 0 -287 -68z" />
<glyph unicode="c" horiz-adv-x="876" d="M168 270q0 188 65 410q53 175 158.5 257.5t308.5 82.5q143 0 258 -23l-40 -151q-126 28 -242 28q-57 0 -95 -7.5t-73.5 -30t-61 -66.5t-45.5 -113q-61 -213 -61 -370q0 -93 45.5 -128.5t163.5 -35.5q93 0 244 29l-11 -148q-138 -27 -264 -27q-99 0 -167.5 18.5t-108.5 57 t-57 91t-17 126.5z" />
<glyph unicode="d" horiz-adv-x="1067" d="M164 219q0 187 72 461q48 186 141.5 262t290.5 76q130 0 252 -29l75 436l174 29l-256 -1454h-143v96q-68 -52 -158.5 -85.5t-171.5 -33.5q-153 0 -214.5 53t-61.5 189zM340 266q0 -80 32.5 -116.5t112.5 -36.5q74 0 158 38.5t143 88.5l107 604q-140 39 -268 39 q-98 0 -146.5 -52.5t-77.5 -173.5q-20 -86 -30 -131t-20.5 -121t-10.5 -139z" />
<glyph unicode="e" horiz-adv-x="962" d="M168 264q0 203 65 414q50 167 157.5 254.5t301.5 87.5q176 0 248 -69t72 -203q0 -179 -110.5 -262t-305.5 -83q-113 0 -242 21q-18 -101 -18 -143q0 -95 50 -129.5t167 -34.5q69 0 166.5 14.5t171.5 36.5l-14 -141q-176 -50 -369 -50q-187 0 -263.5 69.5t-76.5 217.5z M377 563q107 -20 219 -20q254 0 254 188q0 77 -43 113.5t-139 36.5q-114 0 -176.5 -52t-94.5 -172q-9 -34 -20 -94z" />
<glyph unicode="f" horiz-adv-x="737" d="M139 -420l226 1278h-156l24 139h156l33 181q25 140 109.5 208t248.5 68q96 0 181 -18l-33 -138q-91 21 -178 21q-76 0 -111.5 -32.5t-50.5 -112.5l-33 -177h281l-52 -139h-254l-217 -1249z" />
<glyph unicode="g" d="M68 -375l34 142q161 -50 344 -50q133 0 195 38.5t76 115.5l33 178q-152 -59 -312 -59q-148 0 -208 60.5t-60 187.5q0 211 72 440q56 183 165.5 262.5t315.5 79.5q166 0 360 -31l-196 -1114q-27 -152 -134 -223.5t-329 -71.5q-214 0 -356 45zM348 291q0 -85 33.5 -122.5 t112.5 -37.5q129 0 280 64l119 669q-128 21 -205 21q-121 0 -182.5 -52t-97.5 -176q-60 -223 -60 -366z" />
<glyph unicode="h" horiz-adv-x="1067" d="M152 0l249 1425l174 29l-98 -549q89 46 194.5 80.5t190.5 34.5q203 0 203 -170q0 -34 -6 -68l-137 -782h-168l133 766q2 10 2 31q0 75 -88 75q-60 0 -161 -33.5t-187 -78.5l-134 -760h-167z" />
<glyph unicode="i" horiz-adv-x="477" d="M156 0l174 997h166l-174 -997h-166zM367 1214q0 46 18 113q9 36 30 50t70 14q44 0 61 -11t17 -39q0 -84 -24 -133q-10 -24 -31.5 -33.5t-63.5 -9.5q-44 0 -60.5 10.5t-16.5 38.5z" />
<glyph unicode="j" horiz-adv-x="477" d="M-102 -283q101 28 146.5 52t65 55.5t31.5 97.5l189 1075h166l-189 -1071q-15 -88 -41 -143.5t-84 -93t-97.5 -52.5t-144.5 -46q-14 -5 -22 -7zM367 1214q0 46 18 113q9 36 30 50t70 14q44 0 61 -11t17 -39q0 -84 -24 -133q-10 -24 -31.5 -33.5t-63.5 -9.5 q-44 0 -60.5 10.5t-16.5 38.5z" />
<glyph unicode="k" horiz-adv-x="989" d="M152 0l249 1425l174 29l-161 -909l481 452h219l-508 -465l352 -532h-206l-338 539l-95 -539h-167z" />
<glyph unicode="l" horiz-adv-x="557" d="M170 106q0 51 16 136l209 1183l174 29l-221 -1243q-6 -42 -6 -51q0 -29 15 -39t44 -10q51 0 109 20l18 -125q-96 -29 -202 -29q-87 0 -121.5 31.5t-34.5 97.5z" />
<glyph unicode="m" horiz-adv-x="1603" d="M152 0l174 997h147l4 -98q217 121 381 121q156 0 172 -127q244 127 397 127q175 0 175 -166q0 -38 -9 -84l-135 -770h-168l135 768q2 12 2 35q0 38 -18 54.5t-57 16.5q-55 0 -148.5 -33.5t-181.5 -84.5l-133 -756h-168l135 768q2 12 2 35q0 38 -18.5 54.5t-57.5 16.5 q-52 0 -148 -34t-181 -84l-134 -756h-167z" />
<glyph unicode="n" horiz-adv-x="1067" d="M152 0l174 997h149v-92q89 46 195.5 80.5t191.5 34.5q203 0 203 -170q0 -34 -6 -68l-137 -782h-168l133 766q2 10 2 31q0 75 -88 75q-60 0 -161 -33.5t-187 -78.5l-134 -760h-167z" />
<glyph unicode="o" d="M174 285q0 196 68 403q54 166 161.5 249t305.5 83q192 0 271 -77t79 -232q0 -177 -64 -389q-54 -175 -161.5 -261t-309.5 -86q-192 0 -271 77t-79 233zM344 293q0 -97 45.5 -134.5t161.5 -37.5q135 0 195.5 54t93.5 198q49 204 49 332q0 95 -45.5 132t-159.5 37 q-126 0 -186.5 -45.5t-94.5 -164.5q-59 -219 -59 -371z" />
<glyph unicode="p" horiz-adv-x="1073" d="M76 -420l250 1417h145l-2 -96q68 52 158.5 85.5t171.5 33.5q151 0 211.5 -66t60.5 -194q0 -197 -70 -438q-22 -79 -52.5 -138t-78 -107.5t-118 -74t-162.5 -25.5q-123 0 -271 31l-69 -399zM346 154q140 -39 258 -39q100 0 153.5 59.5t86.5 198.5q51 226 51 350 q0 80 -32.5 121t-108.5 41q-74 0 -158 -38.5t-143 -88.5z" />
<glyph unicode="q" d="M172 238q0 209 70 442q53 180 159 260t322 80q166 0 360 -31l-243 -1380l-174 -29l79 455q-146 -58 -303 -58q-148 0 -209 63t-61 198zM346 274q0 -81 35 -117t121 -36q117 0 270 59l121 684q-107 21 -205 21q-126 0 -188.5 -56.5t-93.5 -175.5q-60 -230 -60 -379z" />
<glyph unicode="r" horiz-adv-x="679" d="M154 0l174 997h151l-6 -120q156 108 352 145l-28 -166q-177 -25 -348 -133l-127 -723h-168z" />
<glyph unicode="s" horiz-adv-x="890" d="M115 20l47 142q141 -43 293 -43q85 0 130 14.5t68 59.5q31 57 31 135q0 39 -33.5 58t-142.5 46q-160 41 -217.5 85.5t-57.5 123.5q0 42 12 106t36 111q42 82 130.5 122t233.5 40q61 0 151 -8.5t142 -20.5l-45 -143q-168 33 -291 33q-80 0 -119 -16t-57 -54 q-10 -23 -16.5 -59t-6.5 -56q0 -37 28 -56.5t112 -41.5q186 -49 248.5 -92.5t62.5 -120.5q0 -54 -18 -136t-52 -134q-49 -72 -137 -105t-225 -33q-80 0 -166.5 12t-140.5 31z" />
<glyph unicode="t" horiz-adv-x="741" d="M197 858l24 139h158l45 252l174 29l-51 -281h278l-51 -139h-252l-106 -610q-8 -54 -8 -66q0 -34 18.5 -47.5t67.5 -13.5q77 0 186 33l-12 -142q-125 -32 -238 -32q-108 0 -152.5 37t-44.5 118q0 42 13 109l108 614h-157z" />
<glyph unicode="u" horiz-adv-x="1067" d="M174 150q0 30 6 65l137 782h168l-135 -766q-2 -10 -2 -28q0 -78 88 -78q60 0 160.5 33.5t189.5 79.5l134 759h167l-174 -997h-149v92q-87 -46 -194 -80.5t-193 -34.5q-203 0 -203 173z" />
<glyph unicode="v" horiz-adv-x="929" d="M195 997h184l110 -815l412 815h180l-528 -997h-195z" />
<glyph unicode="w" horiz-adv-x="1419" d="M213 997h164l51 -811l332 633h186l111 -633l321 811h176l-426 -997h-190l-111 666l-346 -666h-190z" />
<glyph unicode="x" horiz-adv-x="946" d="M31 0l434 502l-246 495h193l170 -368l299 368h192l-422 -491l262 -506h-192l-184 379l-314 -379h-192z" />
<glyph unicode="y" horiz-adv-x="931" d="M164 -406l225 400l-194 1003h184l135 -766l395 766h181l-758 -1403h-168z" />
<glyph unicode="z" horiz-adv-x="925" d="M100 0l21 123l649 737h-494l23 137h684l-22 -131l-644 -729h531l-23 -137h-725z" />
<glyph unicode="{" horiz-adv-x="632" d="M143 512l25 139q42 4 64.5 9.5t48 23t41 54t26.5 96.5l76 426q13 74 41 129t65 89.5t89.5 56t108 30.5t128.5 12l-25 -143q-38 -1 -63.5 -4t-59.5 -14t-56 -28.5t-42 -51t-28 -79.5l-66 -366l-13.5 -67.5t-15.5 -63.5t-22.5 -64t-29 -50t-41 -42t-52.5 -22 q84 -20 84 -148q0 -67 -18 -162l-66 -366q-4 -32 -4 -43q0 -34 12 -59t29 -38.5t45.5 -21.5t50.5 -10.5t55 -3.5l-24 -144q-63 2 -111 9t-90.5 23.5t-70 42t-43 65.5t-15.5 94q0 43 8 84l76 426q8 58 8 73q0 64 -29.5 84t-95.5 25z" />
<glyph unicode="|" horiz-adv-x="505" d="M109 -422l335 1901h138l-336 -1901h-137z" />
<glyph unicode="}" horiz-adv-x="632" d="M-18 -414l22 144q39 1 64.5 4t60 13.5t56.5 28.5t41.5 51t27.5 79l65 366q7 41 12.5 67.5t16 64t23 63t30 51.5t41.5 41.5t54 22.5q-86 20 -86 147q0 67 18 162l66 366q4 32 4 46q0 34 -12 58t-28.5 37.5t-45.5 21.5t-51 10.5t-56 3.5l25 143q80 -3 136 -14.5t102 -36.5 t68.5 -69.5t22.5 -110.5q0 -45 -8 -86l-76 -426q-8 -41 -8 -74q0 -64 29.5 -84t97.5 -25l-24 -139q-34 -3 -53 -6.5t-43 -14t-38 -29t-27 -51.5t-22 -81l-75 -426q-13 -74 -40.5 -129t-64 -89.5t-88.5 -56.5t-108 -31t-129 -12z" />
<glyph unicode="~" horiz-adv-x="1024" d="M176 582q60 73 138 118t159 45q54 0 103.5 -20t80 -44.5t71.5 -44.5t81 -20q71 0 124 35t105 99l19 -123q-130 -156 -283 -156q-42 0 -80.5 13.5t-68 32.5t-57.5 37.5t-60 32t-64 13.5q-70 0 -126 -35t-121 -106z" />
<glyph unicode="&#xa1;" horiz-adv-x="512" d="M98 -412l135 723l78 357h123l-47 -357l-121 -723h-168zM317 848q0 82 25 133q10 24 31 33.5t63 9.5q44 0 61 -10.5t17 -38.5q0 -46 -18 -113q-9 -36 -30.5 -49.5t-70.5 -13.5q-44 0 -61 10.5t-17 38.5z" />
<glyph unicode="&#xa2;" horiz-adv-x="894" d="M203 471q0 188 65 410q48 162 142 244t268 94l35 206h135l-35 -206q74 -2 180 -21l-41 -151q-92 19 -166 24l-133 -745q64 5 174 26l-10 -147q-95 -19 -188 -25l-37 -205h-135l37 205q-160 10 -225.5 81.5t-65.5 209.5zM375 487q0 -80 32 -116t111 -45l133 747 q-81 -8 -131 -54.5t-84 -160.5q-61 -213 -61 -371z" />
<glyph unicode="&#xa3;" horiz-adv-x="1163" d="M162 -10l16 133l123 45q154 199 154 410q0 23 -4 59h-199l24 135h152q-29 92 -29 180q0 208 120.5 329.5t371.5 121.5q81 0 173 -16t155 -41l-43 -150q-137 59 -308 59q-159 0 -228 -68t-69 -224q0 -73 31 -191h397l-49 -135h-336q2 -10 2 -35q0 -206 -190 -463h610 l-16 -139h-692q-58 0 -166 -10z" />
<glyph unicode="&#xa4;" horiz-adv-x="1163" d="M236 248l122 135q-86 122 -86 272q0 148 86 275l-122 135l77 86l125 -137q113 90 256 90q141 0 252 -90l127 137l80 -84l-123 -137q84 -124 84 -275q0 -153 -88 -270l127 -137l-80 -84l-127 135q-122 -90 -252 -90q-139 0 -254 90l-125 -135zM406 655q0 -133 84.5 -225 t203.5 -92q120 0 204.5 92t84.5 225q0 134 -85 226t-204 92t-203.5 -92t-84.5 -226z" />
<glyph unicode="&#xa5;" horiz-adv-x="1163" d="M211 319l22 127h342l11 58l-45 143h-273l23 129h207l-207 625h178l229 -721l486 721h178l-428 -625h207l-23 -129h-272l-94 -143l-11 -58h342l-22 -127h-342l-55 -319h-166l55 319h-342z" />
<glyph unicode="&#xa6;" horiz-adv-x="505" d="M111 -412l139 785h137l-139 -785h-137zM305 696l139 785h138l-140 -785h-137z" />
<glyph unicode="&#xa7;" horiz-adv-x="1099" d="M96 -346l43 151q147 -69 332 -69q157 0 233 58t76 177q0 30 -14 57t-33 46.5t-55 41.5t-62.5 35t-74.5 35q-147 67 -202 106q-120 84 -120 202q0 99 63.5 182t168.5 141q-111 79 -111 199q0 83 30 155t88.5 128.5t155 89t220.5 32.5q183 0 325 -57l-43 -150 q-131 60 -309 60q-134 0 -214.5 -55.5t-80.5 -165.5q0 -30 14.5 -56.5t33.5 -45.5t56.5 -41t64 -35t75.5 -35q42 -19 64 -29t60 -30t58.5 -35t47.5 -39t41 -46.5t24 -52.5t10 -63q0 -174 -236 -322q127 -81 127 -209q0 -61 -16.5 -119.5t-55 -114.5t-95 -98t-143 -68 t-193.5 -26q-195 0 -353 66zM383 537q0 -31 12.5 -58t31 -46.5t50.5 -39.5t60.5 -33.5t70.5 -31.5q39 -18 107 -45q180 108 180 219q0 33 -16.5 63t-37 50t-63 44.5t-67.5 35.5t-79.5 34t-72.5 31q-176 -103 -176 -223z" />
<glyph unicode="&#xa8;" horiz-adv-x="681" d="M285 1214q0 53 16 109q9 31 30 43t68 12q45 0 61.5 -10.5t16.5 -38.5q0 -59 -22 -123q-9 -23 -29.5 -32t-63.5 -9q-45 0 -61 10.5t-16 38.5zM651 1214q0 50 17 109q9 31 30 43t68 12q45 0 61.5 -10.5t16.5 -38.5q0 -56 -23 -123q-9 -23 -29 -32t-63 -9q-45 0 -61.5 10.5 t-16.5 38.5z" />
<glyph unicode="&#xa9;" horiz-adv-x="1667" d="M219 541q0 139 35.5 269t106.5 241.5t170.5 194.5t235.5 130t294 47q315 0 473 -151t158 -420q0 -184 -61.5 -345t-170.5 -278t-266.5 -184.5t-341.5 -67.5q-315 0 -474 149.5t-159 414.5zM352 543q0 -206 121 -324.5t377 -118.5q171 0 308 59.5t223.5 163t132 239 t45.5 292.5q0 101 -28.5 181t-86.5 140t-155.5 92.5t-227.5 32.5q-219 0 -381.5 -99t-245 -269.5t-82.5 -388.5zM629 520q0 54 15 152.5t38 179.5q38 132 114 189t232 57q113 0 227 -27l-32 -119q-43 12 -106 20.5t-101 8.5q-103 0 -144.5 -31t-64.5 -129q-47 -192 -47 -301 q0 -62 33.5 -84t126.5 -22q96 0 215 28l-11 -116q-106 -27 -227 -27q-145 0 -206.5 49t-61.5 172z" />
<glyph unicode="&#xaa;" horiz-adv-x="745" d="M268 954q0 151 49 291q36 104 106.5 150.5t207.5 46.5q108 0 241 -19l-110 -622h-115l-2 37q-88 -52 -196 -52q-98 0 -139.5 41t-41.5 127zM401 983q0 -48 21.5 -69t73.5 -21q62 0 161 45l70 391q-46 10 -119 10q-76 0 -113 -30.5t-57 -96.5q-37 -133 -37 -229z" />
<glyph unicode="&#xab;" horiz-adv-x="1009" d="M156 430l24 139l383 369l92 -107l-354 -344l223 -329l-114 -97zM584 430l24 139l383 369l92 -107l-354 -344l223 -329l-114 -97z" />
<glyph unicode="&#xac;" horiz-adv-x="1056" d="M225 600l23 131h780l-84 -481h-137l61 350h-643z" />
<glyph unicode="&#xad;" horiz-adv-x="759" d="M197 479l24 146h535l-25 -146h-534z" />
<glyph unicode="&#xae;" horiz-adv-x="1333" d="M254 760q0 136 43 259t122.5 218t204 151t277.5 56q488 0 488 -432q0 -146 -45.5 -271.5t-128 -216.5t-204 -142.5t-266.5 -51.5q-251 0 -371 112t-120 318zM375 760q0 -318 370 -318q136 0 239 45t164 124.5t91.5 180.5t30.5 222q0 317 -369 317q-255 0 -390.5 -156 t-135.5 -415zM563 594l105 594h250q78 0 109.5 -31t31.5 -92q0 -90 -31 -150q-34 -70 -102 -92l108 -229h-121l-104 219h-102l-39 -219h-105zM721 901h131q64 0 82 55q14 44 14 86q0 31 -18.5 44.5t-63.5 13.5h-110z" />
<glyph unicode="&#xaf;" horiz-adv-x="681" d="M293 1190l22 123h514l-22 -123h-514z" />
<glyph unicode="&#xb0;" horiz-adv-x="698" d="M305 1137q0 102 86.5 185t190.5 83q98 0 156.5 -59t58.5 -156q0 -103 -85 -187.5t-186 -84.5q-102 0 -161.5 59.5t-59.5 159.5zM399 1135q0 -54 35 -89.5t90 -35.5q70 0 124 54t54 126q0 53 -34 88t-88 35q-69 0 -125 -53.5t-56 -124.5z" />
<glyph unicode="&#xb1;" horiz-adv-x="1024" d="M121 0l22 131h781l-23 -131h-780zM223 592l23 131h321l58 326h137l-57 -326h321l-22 -131h-322l-57 -326h-138l58 326h-322z" />
<glyph unicode="&#xb2;" horiz-adv-x="792" d="M207 489l18 107q21 19 93.5 85t99 90.5t71 66.5t74.5 73q90 92 134 162.5t44 134.5q0 47 -31.5 68.5t-103.5 21.5q-122 0 -246 -53l7 115q123 55 270 55q248 0 248 -170q0 -94 -53.5 -183.5t-172.5 -209.5q-96 -96 -266 -250h383l-18 -113h-551z" />
<glyph unicode="&#xb3;" horiz-adv-x="792" d="M201 516l35 117q112 -45 227 -45q72 0 114 14t66 51q17 25 27 69.5t10 76.5q0 51 -33.5 71.5t-99.5 20.5h-178l20 115h115q86 0 131.5 17t66.5 62q25 58 25 132q0 44 -32.5 63.5t-102.5 19.5q-95 0 -230 -43l9 115q129 41 243 41q254 0 254 -168q0 -98 -45 -190 q-34 -60 -104 -90q52 -17 76 -50.5t24 -89.5q0 -140 -67 -233q-86 -117 -308 -117q-131 0 -243 41z" />
<glyph unicode="&#xb4;" horiz-adv-x="681" d="M401 1235l422 205l-18 -158l-395 -166z" />
<glyph unicode="&#xb5;" horiz-adv-x="1067" d="M68 -420l249 1417h168l-135 -766q-2 -10 -2 -28q0 -78 88 -78q60 0 161.5 34t190.5 79l134 759h165l-174 -997h-149v92q-87 -46 -194 -80.5t-193 -34.5q-29 0 -70 9l-65 -377z" />
<glyph unicode="&#xb6;" horiz-adv-x="1175" d="M219 928q0 113 43 204.5t117 149.5t171 88.5t208 30.5h608l-39 -123h-127l-295 -1665l-143 -27l299 1692h-217l-295 -1665l-143 -27l178 1014q-164 0 -264.5 93.5t-100.5 234.5z" />
<glyph unicode="&#xb7;" horiz-adv-x="477" d="M242 518q0 46 18 113q9 36 30 49.5t70 13.5q44 0 61 -10.5t17 -38.5q0 -84 -24 -133q-10 -24 -31.5 -33.5t-63.5 -9.5q-44 0 -60.5 10.5t-16.5 38.5z" />
<glyph unicode="&#xb8;" horiz-adv-x="681" d="M117 -397l35 92q63 -14 122 -14q95 0 101 32l12 72q3 20 -16 26.5t-58 6.5q-15 0 -39 -4l-53 26l68 164h98l-43 -100q90 0 134 -22.5t44 -71.5q0 -15 -2 -23l-14 -84q-10 -61 -65.5 -89t-159.5 -28q-83 0 -164 17z" />
<glyph unicode="&#xb9;" horiz-adv-x="792" d="M293 489l18 113h158l117 653l-178 -81l-11 116l236 111h110l-141 -799h152l-19 -113h-442z" />
<glyph unicode="&#xba;" horiz-adv-x="829" d="M319 993q0 132 41 242q35 103 108 156t200 53q126 0 179.5 -52.5t53.5 -154.5q0 -135 -49 -254q-37 -96 -108 -145.5t-193 -49.5q-125 0 -178.5 52t-53.5 153zM449 997q0 -56 26.5 -78t95.5 -22q77 0 112 29.5t56 105.5q31 122 31 201q0 57 -27 79.5t-96 22.5 q-75 0 -110 -27.5t-56 -99.5q-32 -151 -32 -211z" />
<glyph unicode="&#xbb;" horiz-adv-x="1009" d="M102 168l355 344l-224 330l115 96l254 -369l-24 -139l-383 -369zM530 168l355 344l-223 330l114 96l254 -369l-24 -139l-383 -369z" />
<glyph unicode="&#xbc;" horiz-adv-x="1894" d="M293 489l18 113h158l117 653l-178 -81l-11 116l236 111h110l-141 -799h152l-19 -113h-442zM606 18l854 1428l119 -41l-856 -1428zM1190 236l20 112l521 563h145l-98 -563h123l-21 -112h-123l-41 -236h-135l41 236h-432zM1356 348h286l66 381z" />
<glyph unicode="&#xbd;" horiz-adv-x="1892" d="M293 489l18 113h158l117 653l-178 -81l-11 116l236 111h110l-141 -799h152l-19 -113h-442zM586 18l854 1428l119 -41l-857 -1428zM1219 0l18 106q269 246 338 316q90 92 134 162.5t44 134.5q0 47 -31.5 68.5t-103.5 21.5q-122 0 -246 -53l6 114q126 56 271 56 q247 0 247 -170q0 -94 -53.5 -184t-171.5 -210q-86 -86 -266 -249h383l-19 -113h-550z" />
<glyph unicode="&#xbe;" horiz-adv-x="1894" d="M201 516l35 117q112 -45 227 -45q72 0 114 14t66 51q17 25 27 69.5t10 76.5q0 51 -33.5 71.5t-99.5 20.5h-178l20 115h115q86 0 131.5 17t66.5 62q25 58 25 132q0 44 -32.5 63.5t-102.5 19.5q-95 0 -230 -43l9 115q129 41 243 41q254 0 254 -168q0 -98 -45 -190 q-34 -60 -104 -90q52 -17 76 -50.5t24 -89.5q0 -140 -67 -233q-86 -117 -308 -117q-131 0 -243 41zM606 18l854 1428l119 -41l-856 -1428zM1190 236l20 112l521 563h145l-98 -563h123l-21 -112h-123l-41 -236h-135l41 236h-432zM1356 348h286l66 381z" />
<glyph unicode="&#xbf;" horiz-adv-x="921" d="M86 -190q0 203 94 337q30 43 69.5 77.5t99 76.5t91.5 68q55 46 87.5 95t74.5 142l127 -45q-43 -117 -83.5 -180t-127.5 -127q-12 -8 -56 -38.5t-61 -43.5t-44 -39.5t-44 -54.5q-55 -83 -55 -232q0 -72 45.5 -102.5t157.5 -30.5q133 0 301 51l-10 -149q-188 -49 -326 -49 q-179 0 -259.5 58t-80.5 186zM610 848q0 82 25 133q10 24 31 33.5t63 9.5q44 0 61 -10.5t17 -38.5q0 -43 -19 -113q-9 -36 -30 -49.5t-70 -13.5q-44 0 -61 10.5t-17 38.5z" />
<glyph unicode="&#xc0;" horiz-adv-x="1253" d="M43 0l727 1401h201l239 -1401h-182l-63 391h-553l-195 -391h-174zM481 530h463l-108 709zM678 1657l35 158l352 -205l-49 -119z" />
<glyph unicode="&#xc1;" horiz-adv-x="1253" d="M43 0l727 1401h201l239 -1401h-182l-63 391h-553l-195 -391h-174zM481 530h463l-108 709zM752 1610l422 205l-19 -158l-395 -166z" />
<glyph unicode="&#xc2;" horiz-adv-x="1253" d="M43 0l727 1401h201l239 -1401h-182l-63 391h-553l-195 -391h-174zM481 530h463l-108 709zM596 1610l340 186l285 -188l-76 -113l-238 143l-289 -145z" />
<glyph unicode="&#xc3;" horiz-adv-x="1253" d="M43 0l727 1401h201l239 -1401h-182l-63 391h-553l-195 -391h-174zM481 530h463l-108 709zM629 1663q80 70 182 70q59 0 132.5 -32t103.5 -32q79 0 147 57l2 -120q-77 -70 -182 -70q-47 1 -121.5 32t-112.5 31q-80 0 -147 -57z" />
<glyph unicode="&#xc4;" horiz-adv-x="1253" d="M43 0l727 1401h201l239 -1401h-182l-63 391h-553l-195 -391h-174zM481 530h463l-108 709zM635 1589q0 53 16 109q9 31 30.5 43t68.5 12q45 0 61 -10.5t16 -38.5q0 -59 -22 -123q-9 -23 -29 -32t-63 -9q-45 0 -61.5 10.5t-16.5 38.5zM1001 1589q0 49 17 109q9 31 30 43 t68 12q45 0 61.5 -10.5t16.5 -38.5q0 -56 -23 -123q-9 -23 -29 -32t-63 -9q-45 0 -61.5 10.5t-16.5 38.5z" />
<glyph unicode="&#xc5;" horiz-adv-x="1253" d="M43 0l727 1401h201l239 -1401h-182l-63 391h-553l-195 -391h-174zM481 530h463l-108 709zM748 1616q0 82 53.5 134t136.5 52q64 0 102.5 -36t38.5 -93q0 -84 -52.5 -135t-135.5 -51q-64 0 -103.5 36t-39.5 93zM831 1622q0 -28 18 -43.5t52 -15.5q41 0 68.5 27.5 t27.5 72.5q0 63 -67 63q-44 0 -71.5 -28.5t-27.5 -75.5z" />
<glyph unicode="&#xc6;" horiz-adv-x="1761" d="M43 0l864 1401h983l-26 -152h-711l4 -444h561l-26 -152h-533l2 -501h510l-26 -152h-652l-4 391h-530l-240 -391h-176zM547 530h442l-6 738z" />
<glyph unicode="&#xc7;" horiz-adv-x="1083" d="M211 334q0 119 40 352.5t87 370.5q66 187 193.5 276.5t363.5 89.5q191 0 340 -39l-41 -155q-65 18 -156.5 30.5t-158.5 12.5q-164 0 -246 -53.5t-127 -186.5q-33 -94 -76 -350t-43 -328q0 -126 65.5 -175.5t233.5 -49.5q68 0 160 11.5t162 29.5l-15 -154 q-160 -39 -338 -39h-10l-31 -73q179 0 179 -94q0 -15 -2 -23l-15 -84q-10 -61 -65.5 -89t-159.5 -28q-83 0 -164 17l35 92q63 -14 123 -14q94 0 100 32l12 72q3 20 -15.5 26.5t-57.5 6.5q-15 0 -39 -4l-53 26l57 144q-188 18 -263 104t-75 246z" />
<glyph unicode="&#xc8;" horiz-adv-x="1081" d="M164 0l246 1401h798l-26 -152h-627l-80 -454h561l-26 -152h-561l-87 -491h629l-26 -152h-801zM653 1657l35 158l352 -205l-49 -119z" />
<glyph unicode="&#xc9;" horiz-adv-x="1081" d="M164 0l246 1401h798l-26 -152h-627l-80 -454h561l-26 -152h-561l-87 -491h629l-26 -152h-801zM686 1610l422 205l-18 -158l-396 -166z" />
<glyph unicode="&#xca;" horiz-adv-x="1081" d="M164 0l246 1401h798l-26 -152h-627l-80 -454h561l-26 -152h-561l-87 -491h629l-26 -152h-801zM510 1610l340 186l285 -188l-76 -113l-238 143l-289 -145z" />
<glyph unicode="&#xcb;" horiz-adv-x="1081" d="M164 0l246 1401h798l-26 -152h-627l-80 -454h561l-26 -152h-561l-87 -491h629l-26 -152h-801zM569 1589q0 49 17 109q9 31 30 43t68 12q45 0 61.5 -10.5t16.5 -38.5q0 -56 -23 -123q-9 -23 -29 -32t-63 -9q-45 0 -61.5 10.5t-16.5 38.5zM936 1589q0 53 16 109 q9 31 30.5 43t68.5 12q45 0 61 -10.5t16 -38.5q0 -59 -22 -123q-9 -23 -29 -32t-63 -9q-45 0 -61.5 10.5t-16.5 38.5z" />
<glyph unicode="&#xcc;" horiz-adv-x="516" d="M172 0l246 1401h172l-246 -1401h-172zM313 1657l35 158l352 -205l-49 -119z" />
<glyph unicode="&#xcd;" horiz-adv-x="516" d="M172 0l246 1401h172l-246 -1401h-172zM387 1610l422 205l-18 -158l-396 -166z" />
<glyph unicode="&#xce;" horiz-adv-x="516" d="M172 0l246 1401h172l-246 -1401h-172zM231 1610l340 186l285 -188l-76 -113l-237 143l-289 -145z" />
<glyph unicode="&#xcf;" horiz-adv-x="516" d="M172 0l246 1401h172l-246 -1401h-172zM270 1589q0 49 17 109q9 31 30 43t68 12q45 0 61.5 -10.5t16.5 -38.5q0 -56 -23 -123q-9 -23 -29 -32t-63 -9q-45 0 -61.5 10.5t-16.5 38.5zM637 1589q0 53 16 109q9 31 30.5 43t68.5 12q45 0 61 -10.5t16 -38.5q0 -59 -22 -123 q-9 -23 -29 -32t-63 -9q-45 0 -61.5 10.5t-16.5 38.5z" />
<glyph unicode="&#xd0;" horiz-adv-x="1243" d="M127 633l27 149h147l109 619h444q122 0 206 -22.5t131 -68.5t67 -107t20 -146q0 -117 -36 -327.5t-77 -354.5q-36 -124 -98 -203.5t-176 -125.5t-283 -46h-444l110 633h-147zM362 152h275q162 0 242 61.5t120 198.5q30 101 66.5 323t36.5 297q0 116 -60 166.5t-213 50.5 h-274l-82 -467h307l-26 -149h-308z" />
<glyph unicode="&#xd1;" horiz-adv-x="1325" d="M164 0l246 1401h198l428 -1137l201 1137h168l-246 -1401h-198l-433 1124l-196 -1124h-168zM664 1663q80 70 182 70q59 0 132 -32t103 -32q80 0 148 57l2 -120q-77 -70 -182 -70q-47 1 -121.5 32t-112.5 31q-80 0 -147 -57z" />
<glyph unicode="&#xd2;" horiz-adv-x="1298" d="M217 356q0 101 31.5 300t73.5 343q32 105 76.5 180t112.5 131.5t164 84.5t224 28q121 0 204.5 -25t131.5 -75.5t69 -118.5t21 -162q0 -117 -30.5 -314.5t-77.5 -340.5q-65 -205 -197 -307.5t-375 -102.5q-121 0 -205 25t-132.5 75t-69.5 117.5t-21 161.5zM391 369 q0 -125 62 -182.5t219 -57.5q121 0 198 35.5t118 99t69 170.5q35 132 65.5 318.5t30.5 279.5q0 125 -62 182.5t-219 57.5q-91 0 -155 -18t-108 -57.5t-71.5 -93t-48.5 -132.5q-34 -123 -66 -318t-32 -284zM700 1657l35 158l352 -205l-49 -119z" />
<glyph unicode="&#xd3;" horiz-adv-x="1298" d="M217 356q0 101 31.5 300t73.5 343q32 105 76.5 180t112.5 131.5t164 84.5t224 28q121 0 204.5 -25t131.5 -75.5t69 -118.5t21 -162q0 -117 -30.5 -314.5t-77.5 -340.5q-65 -205 -197 -307.5t-375 -102.5q-121 0 -205 25t-132.5 75t-69.5 117.5t-21 161.5zM391 369 q0 -125 62 -182.5t219 -57.5q121 0 198 35.5t118 99t69 170.5q35 132 65.5 318.5t30.5 279.5q0 125 -62 182.5t-219 57.5q-91 0 -155 -18t-108 -57.5t-71.5 -93t-48.5 -132.5q-34 -123 -66 -318t-32 -284zM774 1610l422 205l-18 -158l-396 -166z" />
<glyph unicode="&#xd4;" horiz-adv-x="1298" d="M217 356q0 101 31.5 300t73.5 343q32 105 76.5 180t112.5 131.5t164 84.5t224 28q121 0 204.5 -25t131.5 -75.5t69 -118.5t21 -162q0 -117 -30.5 -314.5t-77.5 -340.5q-65 -205 -197 -307.5t-375 -102.5q-121 0 -205 25t-132.5 75t-69.5 117.5t-21 161.5zM391 369 q0 -125 62 -182.5t219 -57.5q121 0 198 35.5t118 99t69 170.5q35 132 65.5 318.5t30.5 279.5q0 125 -62 182.5t-219 57.5q-91 0 -155 -18t-108 -57.5t-71.5 -93t-48.5 -132.5q-34 -123 -66 -318t-32 -284zM618 1610l340 186l285 -188l-76 -113l-237 143l-289 -145z" />
<glyph unicode="&#xd5;" horiz-adv-x="1298" d="M217 356q0 101 31.5 300t73.5 343q32 105 76.5 180t112.5 131.5t164 84.5t224 28q121 0 204.5 -25t131.5 -75.5t69 -118.5t21 -162q0 -117 -30.5 -314.5t-77.5 -340.5q-65 -205 -197 -307.5t-375 -102.5q-121 0 -205 25t-132.5 75t-69.5 117.5t-21 161.5zM391 369 q0 -125 62 -182.5t219 -57.5q121 0 198 35.5t118 99t69 170.5q35 132 65.5 318.5t30.5 279.5q0 125 -62 182.5t-219 57.5q-91 0 -155 -18t-108 -57.5t-71.5 -93t-48.5 -132.5q-34 -123 -66 -318t-32 -284zM651 1663q37 32 86.5 51t96.5 19q59 0 132 -32t103 -32q80 0 148 57 l2 -120q-77 -70 -183 -70q-47 1 -121 32t-112 31q-81 0 -148 -57z" />
<glyph unicode="&#xd6;" horiz-adv-x="1298" d="M217 356q0 101 31.5 300t73.5 343q32 105 76.5 180t112.5 131.5t164 84.5t224 28q121 0 204.5 -25t131.5 -75.5t69 -118.5t21 -162q0 -117 -30.5 -314.5t-77.5 -340.5q-65 -205 -197 -307.5t-375 -102.5q-121 0 -205 25t-132.5 75t-69.5 117.5t-21 161.5zM391 369 q0 -125 62 -182.5t219 -57.5q121 0 198 35.5t118 99t69 170.5q35 132 65.5 318.5t30.5 279.5q0 125 -62 182.5t-219 57.5q-91 0 -155 -18t-108 -57.5t-71.5 -93t-48.5 -132.5q-34 -123 -66 -318t-32 -284zM657 1589q0 49 17 109q9 31 30 43t68 12q45 0 61.5 -10.5 t16.5 -38.5q0 -56 -23 -123q-9 -23 -29 -32t-63 -9q-45 0 -61.5 10.5t-16.5 38.5zM1024 1589q0 53 16 109q9 31 30.5 43t68.5 12q45 0 61.5 -10.5t16.5 -38.5q0 -56 -23 -123q-9 -23 -29 -32t-63 -9q-45 0 -61.5 10.5t-16.5 38.5z" />
<glyph unicode="&#xd7;" horiz-adv-x="1024" d="M223 336l299 254l-211 254l95 80l210 -254l299 254l86 -105l-299 -254l209 -254l-94 -80l-209 254l-299 -254z" />
<glyph unicode="&#xd8;" horiz-adv-x="1298" d="M174 -61l113 161q-70 86 -70 256q0 101 31.5 300t73.5 343q32 105 76.5 180t112.5 131.5t164 84.5t224 28q171 0 268 -51l97 137l102 -59l-106 -156q65 -87 65 -252q0 -117 -30.5 -314.5t-77.5 -340.5q-65 -205 -197 -307.5t-375 -102.5q-171 0 -266 50l-103 -148z M391 369q0 -65 10 -101l668 963q-65 41 -197 41q-91 0 -155 -18t-108 -57.5t-71.5 -93t-48.5 -132.5q-34 -123 -66 -318t-32 -284zM477 168q62 -39 195 -39q121 0 198 35.5t118 99t69 170.5q35 132 65.5 318.5t30.5 279.5q0 49 -10 94z" />
<glyph unicode="&#xd9;" horiz-adv-x="1290" d="M221 334q0 64 12 131l164 936h172l-168 -952q-10 -58 -10 -95q0 -112 67 -168.5t210 -56.5q168 0 258 79.5t118 240.5l168 952h172l-163 -936q-15 -83 -42 -152.5t-73.5 -133t-109.5 -107t-153.5 -69.5t-201.5 -26q-420 0 -420 357zM696 1657l35 158l352 -205l-49 -119z " />
<glyph unicode="&#xda;" horiz-adv-x="1290" d="M221 334q0 64 12 131l164 936h172l-168 -952q-10 -58 -10 -95q0 -112 67 -168.5t210 -56.5q168 0 258 79.5t118 240.5l168 952h172l-163 -936q-15 -83 -42 -152.5t-73.5 -133t-109.5 -107t-153.5 -69.5t-201.5 -26q-420 0 -420 357zM770 1610l422 205l-18 -158l-396 -166 z" />
<glyph unicode="&#xdb;" horiz-adv-x="1290" d="M221 334q0 64 12 131l164 936h172l-168 -952q-10 -58 -10 -95q0 -112 67 -168.5t210 -56.5q168 0 258 79.5t118 240.5l168 952h172l-163 -936q-15 -83 -42 -152.5t-73.5 -133t-109.5 -107t-153.5 -69.5t-201.5 -26q-420 0 -420 357zM614 1610l340 186l285 -188l-76 -113 l-237 143l-289 -145z" />
<glyph unicode="&#xdc;" horiz-adv-x="1290" d="M221 334q0 64 12 131l164 936h172l-168 -952q-10 -58 -10 -95q0 -112 67 -168.5t210 -56.5q168 0 258 79.5t118 240.5l168 952h172l-163 -936q-15 -83 -42 -152.5t-73.5 -133t-109.5 -107t-153.5 -69.5t-201.5 -26q-420 0 -420 357zM653 1589q0 49 17 109q9 31 30 43 t68 12q45 0 61.5 -10.5t16.5 -38.5q0 -56 -23 -123q-9 -23 -29 -32t-63 -9q-45 0 -61.5 10.5t-16.5 38.5zM1020 1589q0 53 16 109q9 31 30.5 43t68.5 12q45 0 61 -10.5t16 -38.5q0 -59 -22 -123q-9 -23 -29 -32t-63 -9q-45 0 -61.5 10.5t-16.5 38.5z" />
<glyph unicode="&#xdd;" horiz-adv-x="1120" d="M260 1401h189l229 -727l485 727h189l-621 -912l-86 -489h-170l86 489zM686 1610l422 205l-18 -158l-396 -166z" />
<glyph unicode="&#xde;" horiz-adv-x="1140" d="M164 0l246 1401h172l-43 -246h329q182 0 255 -61t73 -191q0 -80 -22.5 -209t-63.5 -217q-49 -106 -141 -156.5t-252 -50.5h-334l-47 -270h-172zM410 422h307q110 0 166.5 34t83.5 109q23 63 37 145t14 144q0 88 -44.5 119t-154.5 31h-307z" />
<glyph unicode="&#xdf;" horiz-adv-x="1204" d="M158 0l188 1071q65 383 438 383q155 0 236.5 -67t81.5 -187q0 -93 -35 -157.5t-111 -147.5q-10 -10 -27.5 -29.5t-27 -29.5t-23.5 -26t-21.5 -26.5t-15 -23.5t-11 -24t-3.5 -21q0 -19 6.5 -33t30 -32.5t39 -28t62.5 -36.5q16 -9 24 -14q56 -33 87 -59t51 -67.5t20 -96.5 q0 -192 -91 -281.5t-300 -89.5q-123 0 -242 39l47 144q40 -17 104 -29t117 -12q108 0 151.5 39.5t43.5 142.5q0 40 -23.5 67.5t-87.5 65.5q-10 6 -40 22.5t-39 22t-32 20.5t-31 23.5t-23 25t-20 31t-10 35t-5 43.5q0 41 9 75.5t29.5 65.5t38 51t50 54t49.5 53 q55 64 78.5 116.5t23.5 109.5q0 137 -182 137q-114 0 -171 -59.5t-79 -190.5l-188 -1069h-166z" />
<glyph unicode="&#xe0;" d="M172 238q0 214 68 440q36 121 89.5 193t149.5 110.5t244 38.5q166 0 360 -31l-176 -989h-149l-2 78q-64 -41 -149.5 -71t-164.5 -30q-148 0 -209 63t-61 198zM346 274q0 -83 32.5 -120t117.5 -37q124 0 282 104l115 643q-107 21 -205 21q-86 0 -143.5 -28.5t-87.5 -76 t-51 -125.5q-60 -230 -60 -381zM487 1282l35 158l352 -205l-49 -119z" />
<glyph unicode="&#xe1;" d="M172 238q0 214 68 440q36 121 89.5 193t149.5 110.5t244 38.5q166 0 360 -31l-176 -989h-149l-2 78q-64 -41 -149.5 -71t-164.5 -30q-148 0 -209 63t-61 198zM346 274q0 -83 32.5 -120t117.5 -37q124 0 282 104l115 643q-107 21 -205 21q-86 0 -143.5 -28.5t-87.5 -76 t-51 -125.5q-60 -230 -60 -381zM561 1235l422 205l-18 -158l-396 -166z" />
<glyph unicode="&#xe2;" d="M172 238q0 214 68 440q36 121 89.5 193t149.5 110.5t244 38.5q166 0 360 -31l-176 -989h-149l-2 78q-64 -41 -149.5 -71t-164.5 -30q-148 0 -209 63t-61 198zM346 274q0 -83 32.5 -120t117.5 -37q124 0 282 104l115 643q-107 21 -205 21q-86 0 -143.5 -28.5t-87.5 -76 t-51 -125.5q-60 -230 -60 -381zM406 1235l339 186l285 -188l-76 -113l-237 144l-289 -146z" />
<glyph unicode="&#xe3;" d="M172 238q0 214 68 440q36 121 89.5 193t149.5 110.5t244 38.5q166 0 360 -31l-176 -989h-149l-2 78q-64 -41 -149.5 -71t-164.5 -30q-148 0 -209 63t-61 198zM346 274q0 -83 32.5 -120t117.5 -37q124 0 282 104l115 643q-107 21 -205 21q-86 0 -143.5 -28.5t-87.5 -76 t-51 -125.5q-60 -230 -60 -381zM438 1288q37 32 86.5 51t96.5 19q59 0 132 -32t103 -32q79 0 148 58l2 -121q-77 -70 -183 -70q-47 1 -121 32.5t-112 31.5q-80 0 -148 -58z" />
<glyph unicode="&#xe4;" d="M172 238q0 214 68 440q36 121 89.5 193t149.5 110.5t244 38.5q166 0 360 -31l-176 -989h-149l-2 78q-64 -41 -149.5 -71t-164.5 -30q-148 0 -209 63t-61 198zM346 274q0 -83 32.5 -120t117.5 -37q124 0 282 104l115 643q-107 21 -205 21q-86 0 -143.5 -28.5t-87.5 -76 t-51 -125.5q-60 -230 -60 -381zM444 1214q0 50 17 109q9 31 30 43t68 12q45 0 61.5 -10.5t16.5 -38.5q0 -56 -23 -123q-9 -23 -29 -32t-63 -9q-45 0 -61.5 10.5t-16.5 38.5zM811 1214q0 53 16 109q9 31 30.5 43t68.5 12q45 0 61.5 -10.5t16.5 -38.5q0 -56 -23 -123 q-9 -23 -29 -32t-63 -9q-45 0 -61.5 10.5t-16.5 38.5z" />
<glyph unicode="&#xe5;" d="M172 238q0 214 68 440q36 121 89.5 193t149.5 110.5t244 38.5q166 0 360 -31l-176 -989h-149l-2 78q-64 -41 -149.5 -71t-164.5 -30q-148 0 -209 63t-61 198zM346 274q0 -83 32.5 -120t117.5 -37q124 0 282 104l115 643q-107 21 -205 21q-86 0 -143.5 -28.5t-87.5 -76 t-51 -125.5q-60 -230 -60 -381zM557 1241q0 82 54 134t137 52q64 0 102.5 -36t38.5 -93q0 -84 -53 -135t-136 -51q-64 0 -103.5 36t-39.5 93zM641 1247q0 -28 18 -43.5t52 -15.5q41 0 68.5 27.5t27.5 72.5q0 64 -68 64q-44 0 -71 -29t-27 -76z" />
<glyph unicode="&#xe6;" horiz-adv-x="1544" d="M143 180q0 86 29 170.5t88 136.5q63 54 162.5 71t275.5 17q46 0 101 -2l20 123q4 32 4 52q0 133 -168 133q-141 0 -331 -54l16 144q172 49 348 49q203 0 266 -119q66 61 142.5 90t181.5 29q175 0 245 -68.5t70 -208.5q0 -340 -415 -340q-113 0 -242 21q-16 -69 -16 -141 q0 -94 47.5 -130t167.5 -36q68 0 170.5 13.5t171.5 35.5l-17 -143q-81 -20 -185 -33t-181 -13q-244 0 -312 136q-98 -71 -187.5 -103.5t-199.5 -32.5q-252 0 -252 203zM315 221q0 -58 33 -81t98 -23q148 0 310 112q-2 10 -2 33q0 68 22 180q-43 2 -121 2q-112 0 -178 -11 t-106 -48q-56 -53 -56 -164zM958 563q107 -20 220 -20q254 0 254 188q0 76 -43 113t-140 37q-114 0 -176 -52t-94 -172q-12 -47 -21 -94z" />
<glyph unicode="&#xe7;" horiz-adv-x="876" d="M168 270q0 188 65 410q53 175 158.5 257.5t308.5 82.5q143 0 258 -23l-40 -151q-126 28 -242 28q-57 0 -95 -7.5t-73.5 -30t-61 -66.5t-45.5 -113q-61 -213 -61 -370q0 -93 45.5 -128.5t163.5 -35.5q93 0 244 29l-11 -148q-138 -27 -262 -27l-31 -73q179 0 179 -94 q0 -15 -2 -23l-15 -84q-10 -61 -65.5 -89t-159.5 -28q-83 0 -164 17l35 92q63 -14 123 -14q94 0 100 32l12 72q3 20 -15.5 26.5t-57.5 6.5q-15 0 -39 -4l-53 26l57 144q-140 14 -198 84.5t-58 201.5z" />
<glyph unicode="&#xe8;" horiz-adv-x="962" d="M168 264q0 203 65 414q50 167 157.5 254.5t301.5 87.5q176 0 248 -69t72 -203q0 -179 -110.5 -262t-305.5 -83q-113 0 -242 21q-18 -101 -18 -143q0 -95 50 -129.5t167 -34.5q69 0 166.5 14.5t171.5 36.5l-14 -141q-176 -50 -369 -50q-187 0 -263.5 69.5t-76.5 217.5z M377 563q107 -20 219 -20q254 0 254 188q0 77 -43 113.5t-139 36.5q-114 0 -176.5 -52t-94.5 -172q-9 -34 -20 -94zM485 1282l35 158l352 -205l-49 -119z" />
<glyph unicode="&#xe9;" horiz-adv-x="962" d="M168 264q0 203 65 414q50 167 157.5 254.5t301.5 87.5q176 0 248 -69t72 -203q0 -179 -110.5 -262t-305.5 -83q-113 0 -242 21q-18 -101 -18 -143q0 -95 50 -129.5t167 -34.5q69 0 166.5 14.5t171.5 36.5l-14 -141q-176 -50 -369 -50q-187 0 -263.5 69.5t-76.5 217.5z M377 563q107 -20 219 -20q254 0 254 188q0 77 -43 113.5t-139 36.5q-114 0 -176.5 -52t-94.5 -172q-9 -34 -20 -94zM559 1235l422 205l-18 -158l-396 -166z" />
<glyph unicode="&#xea;" horiz-adv-x="962" d="M168 264q0 203 65 414q50 167 157.5 254.5t301.5 87.5q176 0 248 -69t72 -203q0 -179 -110.5 -262t-305.5 -83q-113 0 -242 21q-18 -101 -18 -143q0 -95 50 -129.5t167 -34.5q69 0 166.5 14.5t171.5 36.5l-14 -141q-176 -50 -369 -50q-187 0 -263.5 69.5t-76.5 217.5z M377 563q107 -20 219 -20q254 0 254 188q0 77 -43 113.5t-139 36.5q-114 0 -176.5 -52t-94.5 -172q-9 -34 -20 -94zM403 1235l340 186l285 -188l-76 -113l-237 144l-289 -146z" />
<glyph unicode="&#xeb;" horiz-adv-x="962" d="M168 264q0 203 65 414q50 167 157.5 254.5t301.5 87.5q176 0 248 -69t72 -203q0 -179 -110.5 -262t-305.5 -83q-113 0 -242 21q-18 -101 -18 -143q0 -95 50 -129.5t167 -34.5q69 0 166.5 14.5t171.5 36.5l-14 -141q-176 -50 -369 -50q-187 0 -263.5 69.5t-76.5 217.5z M377 563q107 -20 219 -20q254 0 254 188q0 77 -43 113.5t-139 36.5q-114 0 -176.5 -52t-94.5 -172q-9 -34 -20 -94zM442 1214q0 50 17 109q9 31 30 43t68 12q45 0 61.5 -10.5t16.5 -38.5q0 -56 -23 -123q-9 -23 -29 -32t-63 -9q-45 0 -61.5 10.5t-16.5 38.5zM809 1214 q0 53 16 109q9 31 30.5 43t68.5 12q45 0 61 -10.5t16 -38.5q0 -59 -22 -123q-9 -23 -29 -32t-63 -9q-45 0 -61.5 10.5t-16.5 38.5z" />
<glyph unicode="&#xec;" horiz-adv-x="477" d="M156 0l174 997h166l-174 -997h-166zM225 1282l35 158l352 -205l-49 -119z" />
<glyph unicode="&#xed;" horiz-adv-x="477" d="M156 0l174 997h166l-174 -997h-166zM299 1235l422 205l-19 -158l-395 -166z" />
<glyph unicode="&#xee;" horiz-adv-x="477" d="M143 1235l340 186l285 -188l-76 -113l-237 144l-289 -146zM156 0l174 997h166l-174 -997h-166z" />
<glyph unicode="&#xef;" horiz-adv-x="477" d="M156 0l174 997h166l-174 -997h-166zM182 1214q0 50 17 109q9 31 30 43t68 12q45 0 61.5 -10.5t16.5 -38.5q0 -56 -23 -123q-9 -23 -29 -32t-63 -9q-45 0 -61.5 10.5t-16.5 38.5zM549 1214q0 53 16 109q9 31 30.5 43t68.5 12q45 0 61 -10.5t16 -38.5q0 -59 -22 -123 q-9 -23 -29 -32t-63 -9q-45 0 -61.5 10.5t-16.5 38.5z" />
<glyph unicode="&#xf0;" horiz-adv-x="1067" d="M172 281q0 90 26 232t72 239q56 123 158.5 184t276.5 61q114 0 182 -47q-6 135 -86 240l-195 -121l-47 90l174 107q-69 66 -184 133l158 55q98 -48 163 -102l164 102l45 -90l-135 -84q127 -151 127 -424q0 -95 -19 -248t-51 -272q-50 -181 -158.5 -271t-318.5 -90 q-193 0 -272.5 76t-79.5 230zM344 291q0 -94 45.5 -132t161.5 -38q136 0 195.5 54.5t95.5 201.5q17 69 30 163t13 142q0 94 -45 132t-160 38q-116 0 -175 -39t-93 -135q-28 -80 -48 -202t-20 -185z" />
<glyph unicode="&#xf1;" horiz-adv-x="1067" d="M152 0l174 997h149v-92q89 46 195.5 80.5t191.5 34.5q203 0 203 -170q0 -34 -6 -68l-137 -782h-168l133 766q2 10 2 31q0 75 -88 75q-60 0 -161 -33.5t-187 -78.5l-134 -760h-167zM469 1288q80 70 182 70q59 0 132.5 -32t103.5 -32q78 0 147 58l2 -121q-77 -70 -182 -70 q-47 1 -121 32.5t-112 31.5q-80 0 -148 -58z" />
<glyph unicode="&#xf2;" d="M174 285q0 196 68 403q54 166 161.5 249t305.5 83q192 0 271 -77t79 -232q0 -177 -64 -389q-54 -175 -161.5 -261t-309.5 -86q-192 0 -271 77t-79 233zM344 293q0 -97 45.5 -134.5t161.5 -37.5q135 0 195.5 54t93.5 198q49 204 49 332q0 95 -45.5 132t-159.5 37 q-126 0 -186.5 -45.5t-94.5 -164.5q-59 -219 -59 -371zM516 1282l35 158l352 -205l-49 -119z" />
<glyph unicode="&#xf3;" d="M174 285q0 196 68 403q54 166 161.5 249t305.5 83q192 0 271 -77t79 -232q0 -177 -64 -389q-54 -175 -161.5 -261t-309.5 -86q-192 0 -271 77t-79 233zM344 293q0 -97 45.5 -134.5t161.5 -37.5q135 0 195.5 54t93.5 198q49 204 49 332q0 95 -45.5 132t-159.5 37 q-126 0 -186.5 -45.5t-94.5 -164.5q-59 -219 -59 -371zM590 1235l422 205l-19 -158l-395 -166z" />
<glyph unicode="&#xf4;" d="M174 285q0 196 68 403q54 166 161.5 249t305.5 83q192 0 271 -77t79 -232q0 -177 -64 -389q-54 -175 -161.5 -261t-309.5 -86q-192 0 -271 77t-79 233zM344 293q0 -97 45.5 -134.5t161.5 -37.5q135 0 195.5 54t93.5 198q49 204 49 332q0 95 -45.5 132t-159.5 37 q-126 0 -186.5 -45.5t-94.5 -164.5q-59 -219 -59 -371zM434 1235l340 186l285 -188l-76 -113l-238 144l-288 -146z" />
<glyph unicode="&#xf5;" d="M174 285q0 196 68 403q54 166 161.5 249t305.5 83q192 0 271 -77t79 -232q0 -177 -64 -389q-54 -175 -161.5 -261t-309.5 -86q-192 0 -271 77t-79 233zM344 293q0 -97 45.5 -134.5t161.5 -37.5q135 0 195.5 54t93.5 198q49 204 49 332q0 95 -45.5 132t-159.5 37 q-126 0 -186.5 -45.5t-94.5 -164.5q-59 -219 -59 -371zM467 1288q80 70 182 70q59 0 132.5 -32t103.5 -32q78 0 147 58l2 -121q-77 -70 -182 -70q-47 1 -121.5 32.5t-112.5 31.5q-79 0 -147 -58z" />
<glyph unicode="&#xf6;" d="M174 285q0 196 68 403q54 166 161.5 249t305.5 83q192 0 271 -77t79 -232q0 -177 -64 -389q-54 -175 -161.5 -261t-309.5 -86q-192 0 -271 77t-79 233zM344 293q0 -97 45.5 -134.5t161.5 -37.5q135 0 195.5 54t93.5 198q49 204 49 332q0 95 -45.5 132t-159.5 37 q-126 0 -186.5 -45.5t-94.5 -164.5q-59 -219 -59 -371zM473 1214q0 53 16 109q9 31 30.5 43t68.5 12q45 0 61.5 -10.5t16.5 -38.5q0 -56 -23 -123q-9 -23 -29 -32t-63 -9q-45 0 -61.5 10.5t-16.5 38.5zM840 1214q0 53 16 109q9 31 30 43t68 12q45 0 61.5 -10.5t16.5 -38.5 q0 -59 -22 -123q-9 -23 -29 -32t-63 -9q-45 0 -61.5 10.5t-16.5 38.5z" />
<glyph unicode="&#xf7;" horiz-adv-x="1024" d="M211 512l22 131h781l-23 -131h-780zM455 176q0 46 18 113q9 36 30 49.5t70 13.5q44 0 61 -10.5t17 -38.5q0 -84 -24 -133q-10 -24 -31.5 -33.5t-63.5 -9.5q-44 0 -60.5 10.5t-16.5 38.5zM573 852q0 43 19 113q9 36 30 49.5t70 13.5q44 0 61 -10.5t17 -38.5 q0 -82 -25 -133q-10 -24 -31 -33.5t-63 -9.5q-44 0 -61 10.5t-17 38.5z" />
<glyph unicode="&#xf8;" d="M135 -72l103 140q-64 75 -64 217q0 196 68 403q54 166 161.5 249t305.5 83q114 0 198 -33l101 139l96 -59l-107 -145q62 -74 62 -211q0 -177 -64 -389q-54 -175 -161.5 -261t-309.5 -86q-112 0 -194 29l-99 -135zM344 293q0 -40 6 -70l461 633q-46 18 -127 18 q-126 0 -186.5 -45.5t-94.5 -164.5q-59 -219 -59 -371zM426 137q41 -16 125 -16q135 0 195.5 54t93.5 198q49 204 49 332q0 35 -6 59z" />
<glyph unicode="&#xf9;" horiz-adv-x="1067" d="M174 150q0 30 6 65l137 782h168l-135 -766q-2 -10 -2 -28q0 -78 88 -78q60 0 160.5 33.5t189.5 79.5l134 759h167l-174 -997h-149v92q-87 -46 -194 -80.5t-193 -34.5q-203 0 -203 173zM520 1282l35 158l352 -205l-49 -119z" />
<glyph unicode="&#xfa;" horiz-adv-x="1067" d="M174 150q0 30 6 65l137 782h168l-135 -766q-2 -10 -2 -28q0 -78 88 -78q60 0 160.5 33.5t189.5 79.5l134 759h167l-174 -997h-149v92q-87 -46 -194 -80.5t-193 -34.5q-203 0 -203 173zM594 1235l422 205l-19 -158l-395 -166z" />
<glyph unicode="&#xfb;" horiz-adv-x="1067" d="M174 150q0 30 6 65l137 782h168l-135 -766q-2 -10 -2 -28q0 -78 88 -78q60 0 160.5 33.5t189.5 79.5l134 759h167l-174 -997h-149v92q-87 -46 -194 -80.5t-193 -34.5q-203 0 -203 173zM438 1235l340 186l285 -188l-76 -113l-237 144l-289 -146z" />
<glyph unicode="&#xfc;" horiz-adv-x="1067" d="M174 150q0 30 6 65l137 782h168l-135 -766q-2 -10 -2 -28q0 -78 88 -78q60 0 160.5 33.5t189.5 79.5l134 759h167l-174 -997h-149v92q-87 -46 -194 -80.5t-193 -34.5q-203 0 -203 173zM477 1214q0 50 17 109q9 31 30 43t68 12q45 0 61.5 -10.5t16.5 -38.5q0 -56 -23 -123 q-9 -23 -29 -32t-63 -9q-45 0 -61.5 10.5t-16.5 38.5zM844 1214q0 53 16 109q9 31 30 43t68 12q45 0 61.5 -10.5t16.5 -38.5q0 -59 -22 -123q-9 -23 -29 -32t-63 -9q-45 0 -61.5 10.5t-16.5 38.5z" />
<glyph unicode="&#xfd;" horiz-adv-x="931" d="M164 -406l225 400l-194 1003h184l135 -766l395 766h181l-758 -1403h-168zM526 1235l422 205l-18 -158l-395 -166z" />
<glyph unicode="&#xfe;" horiz-adv-x="1073" d="M76 -420l325 1845l174 29l-96 -547q69 49 156 81t164 32q151 0 211.5 -66t60.5 -194q0 -197 -70 -438q-22 -79 -52.5 -138t-78 -107.5t-118 -74t-162.5 -25.5q-123 0 -271 31l-69 -399zM346 154q140 -39 258 -39q100 0 153.5 59.5t86.5 198.5q51 226 51 350 q0 80 -32.5 121t-108.5 41q-74 0 -158 -38.5t-143 -88.5z" />
<glyph unicode="&#xff;" horiz-adv-x="931" d="M164 -406l225 400l-194 1003h184l135 -766l395 766h181l-758 -1403h-168zM410 1214q0 53 16 109q9 31 30 43t68 12q45 0 61.5 -10.5t16.5 -38.5q0 -59 -22 -123q-9 -23 -29.5 -32t-63.5 -9q-45 0 -61 10.5t-16 38.5zM776 1214q0 50 17 109q9 31 30 43t68 12 q45 0 61.5 -10.5t16.5 -38.5q0 -56 -23 -123q-9 -23 -29 -32t-63 -9q-45 0 -61.5 10.5t-16.5 38.5z" />
<glyph unicode="&#x152;" horiz-adv-x="1818" d="M219 379q0 107 30.5 292t74.5 328q26 78 58.5 139t81 113.5t109.5 87.5t145 54.5t187 19.5q77 0 203 -12h838l-27 -152h-627l-78 -444h562l-27 -152h-561l-88 -501h629l-27 -152h-840q-159 -12 -209 -12q-101 0 -176.5 19t-124 52t-79 83t-42.5 107t-12 130zM393 395 q0 -127 64 -190.5t225 -63.5q120 0 246 21l192 1081q-122 21 -241 21q-93 0 -160 -19t-112.5 -60t-73.5 -95.5t-50 -135.5q-34 -123 -62 -297.5t-28 -261.5z" />
<glyph unicode="&#x153;" horiz-adv-x="1626" d="M174 285q0 196 68 403q36 110 90 180.5t148 111t229 40.5q229 0 303 -139q129 139 348 139q176 0 246.5 -69.5t70.5 -207.5q0 -178 -110 -260t-305 -82q-94 0 -242 23q-16 -96 -16 -143q0 -95 50 -129.5t167 -34.5q69 0 166.5 14.5t171.5 36.5l-15 -141 q-81 -23 -184.5 -37.5t-185.5 -14.5q-230 0 -302 138q-135 -138 -348 -138q-192 0 -271 77t-79 233zM344 293q0 -97 45.5 -134.5t161.5 -37.5q55 0 95 7.5t71.5 27t52.5 45.5t38.5 71.5t29.5 96.5t26 129q25 154 25 207q0 95 -45.5 132t-159.5 37q-126 0 -186.5 -45.5 t-94.5 -164.5q-59 -219 -59 -371zM1042 563q108 -20 220 -20q254 0 254 188q0 76 -43 113t-140 37q-114 0 -176 -52t-94 -172q-12 -47 -21 -94z" />
<glyph unicode="&#x178;" horiz-adv-x="1120" d="M260 1401h189l229 -727l485 727h189l-621 -912l-86 -489h-170l86 489zM569 1589q0 49 17 109q9 31 30 43t68 12q45 0 61.5 -10.5t16.5 -38.5q0 -56 -23 -123q-9 -23 -29 -32t-63 -9q-45 0 -61.5 10.5t-16.5 38.5zM936 1589q0 53 16 109q9 31 30.5 43t68.5 12 q45 0 61 -10.5t16 -38.5q0 -59 -22 -123q-9 -23 -29 -32t-63 -9q-45 0 -61.5 10.5t-16.5 38.5z" />
<glyph unicode="&#x2c6;" horiz-adv-x="681" d="M246 1235l340 186l284 -188l-75 -113l-238 144l-289 -146z" />
<glyph unicode="&#x2dc;" horiz-adv-x="681" d="M279 1288q80 70 182 70q59 0 132 -32t103 -32q79 0 148 58l2 -121q-77 -70 -182 -70q-47 1 -121.5 32.5t-112.5 31.5q-79 0 -147 -58z" />
<glyph unicode="&#x2000;" horiz-adv-x="907" />
<glyph unicode="&#x2001;" horiz-adv-x="1815" />
<glyph unicode="&#x2002;" horiz-adv-x="907" />
<glyph unicode="&#x2003;" horiz-adv-x="1815" />
<glyph unicode="&#x2004;" horiz-adv-x="605" />
<glyph unicode="&#x2005;" horiz-adv-x="453" />
<glyph unicode="&#x2006;" horiz-adv-x="302" />
<glyph unicode="&#x2007;" horiz-adv-x="302" />
<glyph unicode="&#x2008;" horiz-adv-x="226" />
<glyph unicode="&#x2009;" horiz-adv-x="363" />
<glyph unicode="&#x200a;" horiz-adv-x="100" />
<glyph unicode="&#x2010;" horiz-adv-x="759" d="M197 479l24 146h535l-25 -146h-534z" />
<glyph unicode="&#x2011;" horiz-adv-x="759" d="M197 479l24 146h535l-25 -146h-534z" />
<glyph unicode="&#x2012;" horiz-adv-x="759" d="M197 479l24 146h535l-25 -146h-534z" />
<glyph unicode="&#x2013;" horiz-adv-x="1024" d="M76 485l24 136h1041l-25 -136h-1040z" />
<glyph unicode="&#x2014;" horiz-adv-x="1705" d="M76 485l24 136h1723l-25 -136h-1722z" />
<glyph unicode="&#x2018;" horiz-adv-x="477" d="M324 1040q0 12 8 62l10 53q7 47 35 92l115 195q6 12 16 12q-1 -1 1 -1.5t5.5 -2t8 -3t10 -3.5t10.5 -4q37 -16 37 -23q-1 -1 -3 -5.5t-4 -6.5l-73 -145q-13 -30 -13 -33q0 -6 2 -10.5t10 -11t9 -7.5q9 -9 12 -31q2 -22 -2.5 -60.5t-11.5 -57.5q-22 -60 -103 -60 q-45 0 -62 11.5t-17 39.5z" />
<glyph unicode="&#x2019;" horiz-adv-x="477" d="M313 999q0 7 4 15l74 145q12 28 12 33q0 10 -16 22t-16 35q0 52 18 117q9 35 30.5 49.5t69.5 14.5q44 0 61 -12t17 -40q0 -20 -6 -61l-10 -53q-10 -50 -37 -93l-113 -194q-9 -12 -14 -12q-8 0 -37 12q-35 15 -36 18q-1 2 -1 4z" />
<glyph unicode="&#x201a;" horiz-adv-x="477" d="M100 -219q0 6 4 14l74 146q12 28 12 32q0 11 -16 23t-16 35q0 51 18 116q9 35 30.5 49.5t69.5 14.5q44 0 61 -11.5t17 -39.5q0 -22 -6 -62l-10 -53q-10 -48 -37 -92l-113 -195q-9 -12 -14 -12q-8 0 -37 12q-27 11 -32 14t-5 9z" />
<glyph unicode="&#x201c;" horiz-adv-x="827" d="M324 1040q0 12 8 62l10 53q7 47 35 92l115 195q6 12 16 12q-1 -1 1 -1.5t5.5 -2t8 -3t10 -3.5t10.5 -4q37 -16 37 -23q-1 -1 -3 -5.5t-4 -6.5l-73 -145q-13 -30 -13 -33q0 -6 2 -10.5t10 -11t9 -7.5q9 -9 12 -31q2 -22 -2.5 -60.5t-11.5 -57.5q-22 -60 -103 -60 q-45 0 -62 11.5t-17 39.5zM674 1040q0 12 8 62l10 53q7 47 35 92l115 195q6 12 16 12q-1 -1 1 -1.5t5.5 -2t8 -3t10 -3.5t10.5 -4q37 -16 37 -23q-1 -1 -2.5 -5.5t-3.5 -6.5l-74 -145q-12 -28 -12 -33t2 -9.5t4 -6.5t7 -6.5t7 -6.5q9 -9 12 -31q2 -22 -2.5 -60.5 t-11.5 -57.5q-22 -60 -102 -60q-45 0 -62.5 11.5t-17.5 39.5z" />
<glyph unicode="&#x201d;" horiz-adv-x="827" d="M313 999q0 7 4 15l74 145q12 28 12 33q0 10 -16 22t-16 35q0 52 18 117q9 35 30.5 49.5t69.5 14.5q44 0 61 -12t17 -40q0 -20 -6 -61l-10 -53q-10 -50 -37 -93l-113 -194q-9 -12 -14 -12q-8 0 -37 12q-35 15 -36 18q-1 2 -1 4zM664 999q0 7 4 15l73 145q13 30 13 33t-1 6 t-3 5.5t-3.5 3.5t-5 3.5t-4.5 3.5q-16 12 -16 35q0 52 18 117q9 35 31 49.5t70 14.5q44 0 61 -12t17 -40q0 -14 -7 -61l-10 -53q-10 -50 -37 -93l-112 -194q-9 -12 -15 -12q-8 0 -37 12q-34 14 -35 18q-1 1 -1 4z" />
<glyph unicode="&#x201e;" horiz-adv-x="827" d="M100 -219q0 6 4 14l74 146q12 28 12 32q0 11 -16 23t-16 35q0 51 18 116q9 35 30.5 49.5t69.5 14.5q44 0 61 -11.5t17 -39.5q0 -22 -6 -62l-10 -53q-10 -48 -37 -92l-113 -195q-9 -12 -14 -12q-8 0 -37 12q-27 11 -32 14t-5 9zM451 -219q0 6 4 14l73 146q13 30 13 32 q0 10 -17 23q-16 12 -16 35q0 51 18 116q9 35 31 49.5t70 14.5q44 0 61 -11.5t17 -39.5q0 -15 -7 -62l-10 -53q-10 -48 -37 -92l-112 -195q-9 -12 -15 -12q-8 0 -37 12q-26 11 -31 14t-5 9z" />
<glyph unicode="&#x2022;" horiz-adv-x="1024" d="M332 711q0 126 87.5 214.5t213.5 88.5t214.5 -88.5t88.5 -214.5t-88.5 -213.5t-214.5 -87.5t-213.5 87.5t-87.5 213.5z" />
<glyph unicode="&#x2026;" horiz-adv-x="1705" d="M203 35q0 45 18 112q9 36 30.5 50t70.5 14q44 0 60.5 -10.5t16.5 -38.5q0 -84 -24 -133q-10 -24 -31 -33.5t-63 -9.5q-44 0 -61 10.5t-17 38.5zM770 35q0 45 18 112q9 36 30.5 50t70.5 14q44 0 61 -10.5t17 -38.5q0 -82 -25 -133q-10 -24 -31 -33.5t-63 -9.5 q-44 0 -61 10.5t-17 38.5zM1339 35q0 42 19 112q9 36 30 50t70 14q44 0 61 -10.5t17 -38.5q0 -82 -25 -133q-10 -24 -31 -33.5t-63 -9.5q-44 0 -61 10.5t-17 38.5z" />
<glyph unicode="&#x202f;" horiz-adv-x="363" />
<glyph unicode="&#x2039;" horiz-adv-x="581" d="M156 430l24 139l383 369l92 -107l-354 -344l223 -329l-114 -97z" />
<glyph unicode="&#x203a;" horiz-adv-x="581" d="M102 168l355 344l-224 330l115 96l254 -369l-24 -139l-383 -369z" />
<glyph unicode="&#x205f;" horiz-adv-x="453" />
<glyph unicode="&#x20ac;" horiz-adv-x="1163" d="M164 461l43 135h153l31 180h-172l43 135h158q27 123 68 210.5t106 153t160.5 97t224.5 31.5q175 0 321 -39l-43 -150q-128 41 -251 41q-104 0 -168.5 -13.5t-114 -53.5t-79 -104.5t-54.5 -172.5h497l-45 -135h-481l-31 -180h465l-45 -135h-440q-8 -82 -8 -111 q0 -126 62 -176.5t220 -50.5q147 0 308 41l-13 -148q-164 -39 -325 -39q-122 0 -205.5 23t-130.5 69.5t-66.5 108.5t-19.5 150q0 70 8 133h-176z" />
<glyph unicode="&#x2122;" horiz-adv-x="1214" d="M313 1317l15 84h411l-14 -84h-158l-80 -451h-96l80 451h-158zM762 866l94 535h105l83 -338l203 338h105l-95 -535h-96l60 332l-154 -250h-86l-66 252l-59 -334h-94z" />
<glyph unicode="&#x25fc;" horiz-adv-x="993" d="M0 0v993h993v-993h-993z" />
<glyph unicode="&#xfb01;" horiz-adv-x="1193" d="M139 -420l226 1278h-156l24 139h156l33 181q25 140 109.5 208t248.5 68q96 0 181 -18l-33 -138q-91 21 -178 21q-76 0 -111.5 -32.5t-50.5 -112.5l-33 -177h281l-52 -139h-254l-217 -1249zM872 0l175 997h165l-174 -997h-166zM1083 1214q0 43 19 113q9 36 30 50t70 14 q44 0 61 -11t17 -39q0 -82 -25 -133q-10 -24 -31 -33.5t-63 -9.5q-44 0 -61 10.5t-17 38.5z" />
<glyph unicode="&#xfb02;" horiz-adv-x="1273" d="M139 -420l226 1278h-156l24 139h156l33 181q25 140 109.5 208t248.5 68q96 0 181 -18l-33 -138q-91 21 -178 21q-76 0 -111.5 -32.5t-50.5 -112.5l-33 -177h281l-52 -139h-254l-217 -1249zM887 106q0 51 16 136l209 1183l174 29l-221 -1243q-6 -42 -6 -51q0 -29 15 -39 t44 -10q51 0 109 20l18 -125q-96 -29 -203 -29q-87 0 -121 31.5t-34 97.5z" />
</font>
</defs>
</svg>
